<svg xmlns="http://www.w3.org/2000/svg" version="1.1" width="1915" height="974" preserveAspectRatio="none" style="stroke-width: 1px; font-size: 11px; font-family: sans-serif; shape-rendering: crispedges;" id="SVG" viewBox="-20 -47 2293.945556640625 1048"><rect id="backgroundRect" x="-20" y="-47" width="2293.945556640625" height="1048" fill="white"></rect><path d="M 1512.0226942988163 974 H 1410.9554880069563 V 968.465909090909" fill="none" stroke="black" stroke-width="1" class="treeEdge" vector-effect="non-scaling-stroke" id="node#81"></path><path d="M 1572.1718835880574 962.9318181818182 H 1410.9554880069563 V 968.465909090909" fill="none" stroke="black" stroke-width="1" class="treeEdge" vector-effect="non-scaling-stroke" id="node#82"></path><path d="M 1555.696501856671 951.8636363636364 H 1401.4004771765483 V 946.3295454545454" fill="none" stroke="black" stroke-width="1" class="treeEdge" vector-effect="non-scaling-stroke" id="node#84"></path><path d="M 1519.3292466116932 940.7954545454546 H 1401.4004771765483 V 946.3295454545454" fill="none" stroke="black" stroke-width="1" class="treeEdge" vector-effect="non-scaling-stroke" id="node#85"></path><path d="M 1498.049768116446 929.7272727272727 H 1324.6988905486307 V 924.1931818181818" fill="none" stroke="black" stroke-width="1" class="treeEdge" vector-effect="non-scaling-stroke" id="node#77"></path><path d="M 1489.5354610222926 918.659090909091 H 1324.6988905486307 V 924.1931818181818" fill="none" stroke="black" stroke-width="1" class="treeEdge" vector-effect="non-scaling-stroke" id="node#78"></path><path d="M 1527.3026790541276 907.5909090909091 H 1319.5390655356678 V 902.0568181818182" fill="none" stroke="black" stroke-width="1" class="treeEdge" vector-effect="non-scaling-stroke" id="node#88"></path><path d="M 1556.869610648436 896.5227272727273 H 1319.5390655356678 V 902.0568181818182" fill="none" stroke="black" stroke-width="1" class="treeEdge" vector-effect="non-scaling-stroke" id="node#89"></path><path d="M 1510.973825584152 885.4545454545454 H 1322.5854851877098 V 879.9204545454546" fill="none" stroke="black" stroke-width="1" class="treeEdge" vector-effect="non-scaling-stroke" id="node#91"></path><path d="M 1523.3252311867989 874.3863636363636 H 1322.5854851877098 V 879.9204545454546" fill="none" stroke="black" stroke-width="1" class="treeEdge" vector-effect="non-scaling-stroke" id="node#92"></path><path d="M 1464.7075270395496 863.3181818181818 H 1414.067448161488 V 857.7840909090909" fill="none" stroke="black" stroke-width="1" class="treeEdge" vector-effect="non-scaling-stroke" id="node#96"></path><path d="M 1442.6358249622108 852.25 H 1414.067448161488 V 857.7840909090909" fill="none" stroke="black" stroke-width="1" class="treeEdge" vector-effect="non-scaling-stroke" id="node#97"></path><path d="M 1445.971770335612 841.1818181818182 H 1253.3508816649091 V 849.4829545454546" fill="none" stroke="black" stroke-width="1" class="treeEdge" vector-effect="non-scaling-stroke" id="node#94"></path><path d="M 1496.0497897530777 830.1136363636364 H 1492.836539731098 V 824.5795454545454" fill="none" stroke="black" stroke-width="1" class="treeEdge" vector-effect="non-scaling-stroke" id="node#71"></path><path d="M 1494.7599438373825 819.0454545454546 H 1492.836539731098 V 824.5795454545454" fill="none" stroke="black" stroke-width="1" class="treeEdge" vector-effect="non-scaling-stroke" id="node#72"></path><path d="M 1493.8584860844915 807.9772727272727 H 1446.792240329556 V 816.2784090909091" fill="none" stroke="black" stroke-width="1" class="treeEdge" vector-effect="non-scaling-stroke" id="node#69"></path><path d="M 1468.316668177491 796.9090909090909 H 1426.7408187240997 V 806.59375" fill="none" stroke="black" stroke-width="1" class="treeEdge" vector-effect="non-scaling-stroke" id="node#67"></path><path d="M 1503.4887471214527 785.8409090909091 H 1367.2686606186728 V 780.3068181818182" fill="none" stroke="black" stroke-width="1" class="treeEdge" vector-effect="non-scaling-stroke" id="node#64"></path><path d="M 1494.4752729680422 774.7727272727273 H 1367.2686606186728 V 780.3068181818182" fill="none" stroke="black" stroke-width="1" class="treeEdge" vector-effect="non-scaling-stroke" id="node#65"></path><path d="M 1513.3487309297025 763.7045454545454 H 1294.9159180387653 V 772.0056818181818" fill="none" stroke="black" stroke-width="1" class="treeEdge" vector-effect="non-scaling-stroke" id="node#62"></path><path d="M 1395.789592274501 752.6363636363636 H 1382.4001310367003 V 747.1022727272727" fill="none" stroke="black" stroke-width="1" class="treeEdge" vector-effect="non-scaling-stroke" id="node#103"></path><path d="M 1385.6740667091128 741.5681818181818 H 1382.4001310367003 V 747.1022727272727" fill="none" stroke="black" stroke-width="1" class="treeEdge" vector-effect="non-scaling-stroke" id="node#104"></path><path d="M 1378.6885966558386 730.5 H 1357.3669692179228 V 738.8011363636364" fill="none" stroke="black" stroke-width="1" class="treeEdge" vector-effect="non-scaling-stroke" id="node#101"></path><path d="M 1401.962977987351 719.4318181818182 H 1164.9793341199968 V 729.1164772727273" fill="none" stroke="black" stroke-width="1" class="treeEdge" vector-effect="non-scaling-stroke" id="node#99"></path><path d="M 1455.500300154931 708.3636363636364 H 1452.30205603924 V 702.8295454545454" fill="none" stroke="black" stroke-width="1" class="treeEdge" vector-effect="non-scaling-stroke" id="node#119"></path><path d="M 1503.7425234778282 697.2954545454545 H 1452.30205603924 V 702.8295454545454" fill="none" stroke="black" stroke-width="1" class="treeEdge" vector-effect="non-scaling-stroke" id="node#120"></path><path d="M 1457.588769230403 686.2272727272727 H 1426.8200410823092 V 694.528409090909" fill="none" stroke="black" stroke-width="1" class="treeEdge" vector-effect="non-scaling-stroke" id="node#117"></path><path d="M 1441.3016233529152 675.1590909090909 H 1413.7145886885705 V 669.625" fill="none" stroke="black" stroke-width="1" class="treeEdge" vector-effect="non-scaling-stroke" id="node#122"></path><path d="M 1450.8288291216772 664.0909090909091 H 1413.7145886885705 V 669.625" fill="none" stroke="black" stroke-width="1" class="treeEdge" vector-effect="non-scaling-stroke" id="node#123"></path><path d="M 1422.4175729868164 653.0227272727273 H 1340.9107862195785 V 667.5497159090909" fill="none" stroke="black" stroke-width="1" class="treeEdge" vector-effect="non-scaling-stroke" id="node#114"></path><path d="M 1472.5205286897185 641.9545454545455 H 1411.6309744651176 V 636.4204545454546" fill="none" stroke="black" stroke-width="1" class="treeEdge" vector-effect="non-scaling-stroke" id="node#108"></path><path d="M 1491.9604596138377 630.8863636363636 H 1411.6309744651176 V 636.4204545454546" fill="none" stroke="black" stroke-width="1" class="treeEdge" vector-effect="non-scaling-stroke" id="node#109"></path><path d="M 1448.079438144139 619.8181818181818 H 1403.0718703271953 V 614.2840909090909" fill="none" stroke="black" stroke-width="1" class="treeEdge" vector-effect="non-scaling-stroke" id="node#111"></path><path d="M 1465.4602497800854 608.75 H 1403.0718703271953 V 614.2840909090909" fill="none" stroke="black" stroke-width="1" class="treeEdge" vector-effect="non-scaling-stroke" id="node#112"></path><path d="M 1356.4231418472789 597.6818181818182 H 1217.3481816727597 V 592.1477272727273" fill="none" stroke="black" stroke-width="1" class="treeEdge" vector-effect="non-scaling-stroke" id="node#55"></path><path d="M 1351.2600067079252 586.6136363636364 H 1217.3481816727597 V 592.1477272727273" fill="none" stroke="black" stroke-width="1" class="treeEdge" vector-effect="non-scaling-stroke" id="node#56"></path><path d="M 1900.0241055221811 575.5454545454545 H 1864.016992028181 V 570.0113636363636" fill="none" stroke="black" stroke-width="1" class="treeEdge" vector-effect="non-scaling-stroke" id="node#34"></path><path d="M 1915 564.4772727272727 H 1864.016992028181 V 570.0113636363636" fill="none" stroke="black" stroke-width="1" class="treeEdge" vector-effect="non-scaling-stroke" id="node#35"></path><path d="M 1875.4287630869374 553.4090909090909 H 1785.7422126657839 V 547.875" fill="none" stroke="black" stroke-width="1" class="treeEdge" vector-effect="non-scaling-stroke" id="node#37"></path><path d="M 1894.318771680527 542.3409090909091 H 1785.7422126657839 V 547.875" fill="none" stroke="black" stroke-width="1" class="treeEdge" vector-effect="non-scaling-stroke" id="node#38"></path><path d="M 1772.9673315606144 531.2727272727273 H 1653.282650414401 V 545.1079545454546" fill="none" stroke="black" stroke-width="1" class="treeEdge" vector-effect="non-scaling-stroke" id="node#31"></path><path d="M 1717.794811652798 520.2045454545455 H 1624.76348885453 V 532.65625" fill="none" stroke="black" stroke-width="1" class="treeEdge" vector-effect="non-scaling-stroke" id="node#29"></path><path d="M 1668.3352479742748 509.1363636363636 H 1590.0225124959745 V 520.8963068181818" fill="none" stroke="black" stroke-width="1" class="treeEdge" vector-effect="non-scaling-stroke" id="node#27"></path><path d="M 1569.8737731747135 498.0681818181818 H 1418.4888943149383 V 509.4822443181818" fill="none" stroke="black" stroke-width="1" class="treeEdge" vector-effect="non-scaling-stroke" id="node#25"></path><path d="M 1697.1503395284224 487 H 1334.2452950504476 V 481.4659090909091" fill="none" stroke="black" stroke-width="1" class="treeEdge" vector-effect="non-scaling-stroke" id="node#40"></path><path d="M 1690.409156802545 475.9318181818182 H 1334.2452950504476 V 481.4659090909091" fill="none" stroke="black" stroke-width="1" class="treeEdge" vector-effect="non-scaling-stroke" id="node#41"></path><path d="M 1366.5647070736004 464.8636363636364 H 1314.07448821996 V 459.32954545454555" fill="none" stroke="black" stroke-width="1" class="treeEdge" vector-effect="non-scaling-stroke" id="node#48"></path><path d="M 1365.923204579686 453.79545454545456 H 1314.07448821996 V 459.32954545454555" fill="none" stroke="black" stroke-width="1" class="treeEdge" vector-effect="non-scaling-stroke" id="node#49"></path><path d="M 1345.9618184119608 442.72727272727275 H 1271.739516448348 V 451.0284090909091" fill="none" stroke="black" stroke-width="1" class="treeEdge" vector-effect="non-scaling-stroke" id="node#46"></path><path d="M 1286.2530966073662 431.65909090909093 H 1176.377864673227 V 441.34375" fill="none" stroke="black" stroke-width="1" class="treeEdge" vector-effect="non-scaling-stroke" id="node#44"></path><path d="M 1412.9091246009405 420.59090909090907 H 1400.4674628854525 V 415.0568181818181" fill="none" stroke="black" stroke-width="1" class="treeEdge" vector-effect="non-scaling-stroke" id="node#51"></path><path d="M 1415.2160620179855 409.52272727272725 H 1400.4674628854525 V 415.0568181818181" fill="none" stroke="black" stroke-width="1" class="treeEdge" vector-effect="non-scaling-stroke" id="node#52"></path><path d="M 1269.5786659425332 398.45454545454544 H 1269.0636102766252 V 392.92045454545445" fill="none" stroke="black" stroke-width="1" class="treeEdge" vector-effect="non-scaling-stroke" id="node#142"></path><path d="M 1269.3838098358528 387.3863636363636 H 1269.0636102766252 V 392.92045454545445" fill="none" stroke="black" stroke-width="1" class="treeEdge" vector-effect="non-scaling-stroke" id="node#143"></path><path d="M 1266.8303783404672 376.3181818181818 H 1265.8439606769607 V 384.6193181818181" fill="none" stroke="black" stroke-width="1" class="treeEdge" vector-effect="non-scaling-stroke" id="node#140"></path><path d="M 1275.8696714796886 365.25 H 1259.6522589314313 V 359.7159090909091" fill="none" stroke="black" stroke-width="1" class="treeEdge" vector-effect="non-scaling-stroke" id="node#145"></path><path d="M 1271.867508002008 354.1818181818182 H 1259.6522589314313 V 359.7159090909091" fill="none" stroke="black" stroke-width="1" class="treeEdge" vector-effect="non-scaling-stroke" id="node#146"></path><path d="M 1262.3533220637003 343.1136363636364 H 1260.199533160848 V 337.57954545454555" fill="none" stroke="black" stroke-width="1" class="treeEdge" vector-effect="non-scaling-stroke" id="node#148"></path><path d="M 1274.395561861751 332.04545454545456 H 1260.199533160848 V 337.57954545454555" fill="none" stroke="black" stroke-width="1" class="treeEdge" vector-effect="non-scaling-stroke" id="node#149"></path><path d="M 1258.2476619676272 320.97727272727275 H 1243.9329100669586 V 337.9254261363636" fill="none" stroke="black" stroke-width="1" class="treeEdge" vector-effect="non-scaling-stroke" id="node#136"></path><path d="M 1253.7136715169995 309.90909090909093 H 1233.5342583578959 V 323.91725852272725" fill="none" stroke="black" stroke-width="1" class="treeEdge" vector-effect="non-scaling-stroke" id="node#134"></path><path d="M 1249.2807502587361 298.84090909090907 H 1194.1914201655657 V 293.3068181818181" fill="none" stroke="black" stroke-width="1" class="treeEdge" vector-effect="non-scaling-stroke" id="node#131"></path><path d="M 1250.5346261343502 287.77272727272725 H 1194.1914201655657 V 293.3068181818181" fill="none" stroke="black" stroke-width="1" class="treeEdge" vector-effect="non-scaling-stroke" id="node#132"></path><path d="M 1265.1993687317392 276.70454545454544 H 1093.7134163706944 V 292.65829190340907" fill="none" stroke="black" stroke-width="1" class="treeEdge" vector-effect="non-scaling-stroke" id="node#128"></path><path d="M 1204.8122916927862 265.6363636363636 H 1168.4995431956659 V 260.10227272727275" fill="none" stroke="black" stroke-width="1" class="treeEdge" vector-effect="non-scaling-stroke" id="node#151"></path><path d="M 1222.7046281931653 254.5681818181818 H 1168.4995431956659 V 260.10227272727275" fill="none" stroke="black" stroke-width="1" class="treeEdge" vector-effect="non-scaling-stroke" id="node#152"></path><path d="M 1150.025065801261 243.5 H 972.2463425023102 V 259.94014115767044" fill="none" stroke="black" stroke-width="1" class="treeEdge" vector-effect="non-scaling-stroke" id="node#125"></path><path d="M 1192.4288054485478 232.4318181818182 H 1113.7868227322224 V 226.89772727272722" fill="none" stroke="black" stroke-width="1" class="treeEdge" vector-effect="non-scaling-stroke" id="node#160"></path><path d="M 1195.1519360900681 221.36363636363637 H 1113.7868227322224 V 226.89772727272722" fill="none" stroke="black" stroke-width="1" class="treeEdge" vector-effect="non-scaling-stroke" id="node#161"></path><path d="M 1189.1687723069645 210.29545454545456 H 1120.1513130751928 V 204.76136363636363" fill="none" stroke="black" stroke-width="1" class="treeEdge" vector-effect="non-scaling-stroke" id="node#163"></path><path d="M 1235.3253953305868 199.22727272727278 H 1120.1513130751928 V 204.76136363636363" fill="none" stroke="black" stroke-width="1" class="treeEdge" vector-effect="non-scaling-stroke" id="node#164"></path><path d="M 1217.883236018917 188.15909090909096 H 1023.3623348017375 V 201.9943181818182" fill="none" stroke="black" stroke-width="1" class="treeEdge" vector-effect="non-scaling-stroke" id="node#157"></path><path d="M 1124.982194278395 177.09090909090904 H 967.9714246102712 V 189.54261363636363" fill="none" stroke="black" stroke-width="1" class="treeEdge" vector-effect="non-scaling-stroke" id="node#155"></path><path d="M 1058.2816028428535 166.02272727272722 H 1010.2465934318127 V 160.48863636363637" fill="none" stroke="black" stroke-width="1" class="treeEdge" vector-effect="non-scaling-stroke" id="node#166"></path><path d="M 1076.0002680454288 154.95454545454544 H 1010.2465934318127 V 160.48863636363637" fill="none" stroke="black" stroke-width="1" class="treeEdge" vector-effect="non-scaling-stroke" id="node#167"></path><path d="M 1018.86925199639 143.88636363636363 H 923.585939879103 V 138.35227272727278" fill="none" stroke="black" stroke-width="1" class="treeEdge" vector-effect="non-scaling-stroke" id="node#171"></path><path d="M 1014.1712999520344 132.8181818181818 H 923.585939879103 V 138.35227272727278" fill="none" stroke="black" stroke-width="1" class="treeEdge" vector-effect="non-scaling-stroke" id="node#172"></path><path d="M 980.6097078331896 121.75 H 759.6885625991499 V 130.05113636363637" fill="none" stroke="black" stroke-width="1" class="treeEdge" vector-effect="non-scaling-stroke" id="node#169"></path><path d="M 724.721490816126 110.68181818181819 H 421.6293267864165 V 160.82573491876775" fill="none" stroke="black" stroke-width="1" class="treeEdge" vector-effect="non-scaling-stroke" id="node#17"></path><path d="M 351.09450561857886 99.61363636363639 H 330.3762038835651 V 94.07954545454554" fill="none" stroke="black" stroke-width="1" class="treeEdge" vector-effect="non-scaling-stroke" id="node#14"></path><path d="M 350.96982419131007 88.54545454545458 H 330.3762038835651 V 94.07954545454554" fill="none" stroke="black" stroke-width="1" class="treeEdge" vector-effect="non-scaling-stroke" id="node#15"></path><path d="M 374.0511148168669 77.47727272727276 H 239.31859911267293 V 85.77840909090915" fill="none" stroke="black" stroke-width="1" class="treeEdge" vector-effect="non-scaling-stroke" id="node#12"></path><path d="M 303.9342522742297 66.40909090909096 H 162.0430365691392 V 94.85558145696479" fill="none" stroke="black" stroke-width="1" class="treeEdge" vector-effect="non-scaling-stroke" id="node#9"></path><path d="M 186.34046762949183 55.340909090909044 H 105.31386986355282 V 75.09824527393685" fill="none" stroke="black" stroke-width="1" class="treeEdge" vector-effect="non-scaling-stroke" id="node#7"></path><path d="M 144.61654518903623 44.27272727272723 H 77.67718330339521 V 59.685486273332046" fill="none" stroke="black" stroke-width="1" class="treeEdge" vector-effect="non-scaling-stroke" id="node#5"></path><path d="M 83.1689036554958 33.204545454545425 H 56.914967224974966 V 27.67045454545447" fill="none" stroke="black" stroke-width="1" class="treeEdge" vector-effect="non-scaling-stroke" id="node#174"></path><path d="M 77.70609174051285 22.136363636363615 H 56.914967224974966 V 27.67045454545447" fill="none" stroke="black" stroke-width="1" class="treeEdge" vector-effect="non-scaling-stroke" id="node#175"></path><path d="M 19.958068132827158 11.068181818181808 H 18.960396039603978 V 18.248717409191634" fill="none" stroke="black" stroke-width="1" class="treeEdge" vector-effect="non-scaling-stroke" id="node#1"></path><path d="M 20.660918302452885 0 H 18.960396039603978 V 18.248717409191634" fill="none" stroke="black" stroke-width="1" class="treeEdge" vector-effect="non-scaling-stroke" id="node#2"></path><path d="M 1410.9554880069563 968.465909090909 H 1334.875322439536 V 957.3977272727273" fill="none" stroke="black" stroke-width="1" class="treeEdge" vector-effect="non-scaling-stroke" id="node#80"></path><path d="M 1401.4004771765483 946.3295454545454 H 1334.875322439536 V 957.3977272727273" fill="none" stroke="black" stroke-width="1" class="treeEdge" vector-effect="non-scaling-stroke" id="node#83"></path><path d="M 1334.875322439536 957.3977272727273 H 1237.3457585556366 V 940.7954545454546" fill="none" stroke="black" stroke-width="1" class="treeEdge" vector-effect="non-scaling-stroke" id="node#79"></path><path d="M 1324.6988905486307 924.1931818181818 H 1237.3457585556366 V 940.7954545454546" fill="none" stroke="black" stroke-width="1" class="treeEdge" vector-effect="non-scaling-stroke" id="node#76"></path><path d="M 1237.3457585556366 940.7954545454546 H 1194.0954265003174 V 915.8920454545454" fill="none" stroke="black" stroke-width="1" class="treeEdge" vector-effect="non-scaling-stroke" id="node#75"></path><path d="M 1319.5390655356678 902.0568181818182 H 1268.8424938339144 V 890.9886363636364" fill="none" stroke="black" stroke-width="1" class="treeEdge" vector-effect="non-scaling-stroke" id="node#87"></path><path d="M 1322.5854851877098 879.9204545454546 H 1268.8424938339144 V 890.9886363636364" fill="none" stroke="black" stroke-width="1" class="treeEdge" vector-effect="non-scaling-stroke" id="node#90"></path><path d="M 1268.8424938339144 890.9886363636364 H 1194.0954265003174 V 915.8920454545454" fill="none" stroke="black" stroke-width="1" class="treeEdge" vector-effect="non-scaling-stroke" id="node#86"></path><path d="M 1194.0954265003174 915.8920454545454 H 1165.3699290337331 V 882.6875" fill="none" stroke="black" stroke-width="1" class="treeEdge" vector-effect="non-scaling-stroke" id="node#74"></path><path d="M 1414.067448161488 857.7840909090909 H 1253.3508816649091 V 849.4829545454546" fill="none" stroke="black" stroke-width="1" class="treeEdge" vector-effect="non-scaling-stroke" id="node#95"></path><path d="M 1253.3508816649091 849.4829545454546 H 1165.3699290337331 V 882.6875" fill="none" stroke="black" stroke-width="1" class="treeEdge" vector-effect="non-scaling-stroke" id="node#93"></path><path d="M 1165.3699290337331 882.6875 H 1124.5794622345798 V 835.9936079545454" fill="none" stroke="black" stroke-width="1" class="treeEdge" vector-effect="non-scaling-stroke" id="node#73"></path><path d="M 1492.836539731098 824.5795454545454 H 1446.792240329556 V 816.2784090909091" fill="none" stroke="black" stroke-width="1" class="treeEdge" vector-effect="non-scaling-stroke" id="node#70"></path><path d="M 1446.792240329556 816.2784090909091 H 1426.7408187240997 V 806.59375" fill="none" stroke="black" stroke-width="1" class="treeEdge" vector-effect="non-scaling-stroke" id="node#68"></path><path d="M 1426.7408187240997 806.59375 H 1227.2158891092504 V 789.2997159090909" fill="none" stroke="black" stroke-width="1" class="treeEdge" vector-effect="non-scaling-stroke" id="node#66"></path><path d="M 1367.2686606186728 780.3068181818182 H 1294.9159180387653 V 772.0056818181818" fill="none" stroke="black" stroke-width="1" class="treeEdge" vector-effect="non-scaling-stroke" id="node#63"></path><path d="M 1294.9159180387653 772.0056818181818 H 1227.2158891092504 V 789.2997159090909" fill="none" stroke="black" stroke-width="1" class="treeEdge" vector-effect="non-scaling-stroke" id="node#61"></path><path d="M 1227.2158891092504 789.2997159090909 H 1124.5794622345798 V 835.9936079545454" fill="none" stroke="black" stroke-width="1" class="treeEdge" vector-effect="non-scaling-stroke" id="node#60"></path><path d="M 1124.5794622345798 835.9936079545454 H 1085.0614080188052 V 782.5550426136364" fill="none" stroke="black" stroke-width="1" class="treeEdge" vector-effect="non-scaling-stroke" id="node#59"></path><path d="M 1382.4001310367003 747.1022727272727 H 1357.3669692179228 V 738.8011363636364" fill="none" stroke="black" stroke-width="1" class="treeEdge" vector-effect="non-scaling-stroke" id="node#102"></path><path d="M 1357.3669692179228 738.8011363636364 H 1164.9793341199968 V 729.1164772727273" fill="none" stroke="black" stroke-width="1" class="treeEdge" vector-effect="non-scaling-stroke" id="node#100"></path><path d="M 1164.9793341199968 729.1164772727273 H 1085.0614080188052 V 782.5550426136364" fill="none" stroke="black" stroke-width="1" class="treeEdge" vector-effect="non-scaling-stroke" id="node#98"></path><path d="M 1085.0614080188052 782.5550426136364 H 1031.9475613537484 V 714.5030184659091" fill="none" stroke="black" stroke-width="1" class="treeEdge" vector-effect="non-scaling-stroke" id="node#58"></path><path d="M 1452.30205603924 702.8295454545454 H 1426.8200410823092 V 694.528409090909" fill="none" stroke="black" stroke-width="1" class="treeEdge" vector-effect="non-scaling-stroke" id="node#118"></path><path d="M 1426.8200410823092 694.528409090909 H 1395.328602006257 V 682.0767045454545" fill="none" stroke="black" stroke-width="1" class="treeEdge" vector-effect="non-scaling-stroke" id="node#116"></path><path d="M 1413.7145886885705 669.625 H 1395.328602006257 V 682.0767045454545" fill="none" stroke="black" stroke-width="1" class="treeEdge" vector-effect="non-scaling-stroke" id="node#121"></path><path d="M 1395.328602006257 682.0767045454545 H 1340.9107862195785 V 667.5497159090909" fill="none" stroke="black" stroke-width="1" class="treeEdge" vector-effect="non-scaling-stroke" id="node#115"></path><path d="M 1340.9107862195785 667.5497159090909 H 1187.5581475599183 V 646.4509943181818" fill="none" stroke="black" stroke-width="1" class="treeEdge" vector-effect="non-scaling-stroke" id="node#113"></path><path d="M 1411.6309744651176 636.4204545454546 H 1287.9853960835173 V 625.3522727272727" fill="none" stroke="black" stroke-width="1" class="treeEdge" vector-effect="non-scaling-stroke" id="node#107"></path><path d="M 1403.0718703271953 614.2840909090909 H 1287.9853960835173 V 625.3522727272727" fill="none" stroke="black" stroke-width="1" class="treeEdge" vector-effect="non-scaling-stroke" id="node#110"></path><path d="M 1287.9853960835173 625.3522727272727 H 1187.5581475599183 V 646.4509943181818" fill="none" stroke="black" stroke-width="1" class="treeEdge" vector-effect="non-scaling-stroke" id="node#106"></path><path d="M 1187.5581475599183 646.4509943181818 H 1031.9475613537484 V 714.5030184659091" fill="none" stroke="black" stroke-width="1" class="treeEdge" vector-effect="non-scaling-stroke" id="node#105"></path><path d="M 1031.9475613537484 714.5030184659091 H 962.2780072236238 V 653.3253728693182" fill="none" stroke="black" stroke-width="1" class="treeEdge" vector-effect="non-scaling-stroke" id="node#57"></path><path d="M 1217.3481816727597 592.1477272727273 H 962.2780072236238 V 653.3253728693182" fill="none" stroke="black" stroke-width="1" class="treeEdge" vector-effect="non-scaling-stroke" id="node#54"></path><path d="M 962.2780072236238 653.3253728693182 H 762.9106396248307 V 557.5812766335227" fill="none" stroke="black" stroke-width="1" class="treeEdge" vector-effect="non-scaling-stroke" id="node#53"></path><path d="M 1864.016992028181 570.0113636363636 H 1747.3462912954042 V 558.9431818181818" fill="none" stroke="black" stroke-width="1" class="treeEdge" vector-effect="non-scaling-stroke" id="node#33"></path><path d="M 1785.7422126657839 547.875 H 1747.3462912954042 V 558.9431818181818" fill="none" stroke="black" stroke-width="1" class="treeEdge" vector-effect="non-scaling-stroke" id="node#36"></path><path d="M 1747.3462912954042 558.9431818181818 H 1653.282650414401 V 545.1079545454546" fill="none" stroke="black" stroke-width="1" class="treeEdge" vector-effect="non-scaling-stroke" id="node#32"></path><path d="M 1653.282650414401 545.1079545454546 H 1624.76348885453 V 532.65625" fill="none" stroke="black" stroke-width="1" class="treeEdge" vector-effect="non-scaling-stroke" id="node#30"></path><path d="M 1624.76348885453 532.65625 H 1590.0225124959745 V 520.8963068181818" fill="none" stroke="black" stroke-width="1" class="treeEdge" vector-effect="non-scaling-stroke" id="node#28"></path><path d="M 1590.0225124959745 520.8963068181818 H 1418.4888943149383 V 509.4822443181818" fill="none" stroke="black" stroke-width="1" class="treeEdge" vector-effect="non-scaling-stroke" id="node#26"></path><path d="M 1418.4888943149383 509.4822443181818 H 1257.471989017465 V 495.47407670454555" fill="none" stroke="black" stroke-width="1" class="treeEdge" vector-effect="non-scaling-stroke" id="node#24"></path><path d="M 1334.2452950504476 481.4659090909091 H 1257.471989017465 V 495.47407670454555" fill="none" stroke="black" stroke-width="1" class="treeEdge" vector-effect="non-scaling-stroke" id="node#39"></path><path d="M 1257.471989017465 495.47407670454555 H 891.7100847919154 V 461.83718039772725" fill="none" stroke="black" stroke-width="1" class="treeEdge" vector-effect="non-scaling-stroke" id="node#23"></path><path d="M 1314.07448821996 459.32954545454555 H 1271.739516448348 V 451.0284090909091" fill="none" stroke="black" stroke-width="1" class="treeEdge" vector-effect="non-scaling-stroke" id="node#47"></path><path d="M 1271.739516448348 451.0284090909091 H 1176.377864673227 V 441.34375" fill="none" stroke="black" stroke-width="1" class="treeEdge" vector-effect="non-scaling-stroke" id="node#45"></path><path d="M 1176.377864673227 441.34375 H 951.5441500490572 V 428.20028409090907" fill="none" stroke="black" stroke-width="1" class="treeEdge" vector-effect="non-scaling-stroke" id="node#43"></path><path d="M 1400.4674628854525 415.0568181818181 H 951.5441500490572 V 428.20028409090907" fill="none" stroke="black" stroke-width="1" class="treeEdge" vector-effect="non-scaling-stroke" id="node#50"></path><path d="M 951.5441500490572 428.20028409090907 H 891.7100847919154 V 461.83718039772725" fill="none" stroke="black" stroke-width="1" class="treeEdge" vector-effect="non-scaling-stroke" id="node#42"></path><path d="M 891.7100847919154 461.83718039772725 H 762.9106396248307 V 557.5812766335227" fill="none" stroke="black" stroke-width="1" class="treeEdge" vector-effect="non-scaling-stroke" id="node#22"></path><path d="M 762.9106396248307 557.5812766335227 H 683.1946312332824 V 408.76070889559657" fill="none" stroke="black" stroke-width="1" class="treeEdge" vector-effect="non-scaling-stroke" id="node#21"></path><path d="M 1269.0636102766252 392.92045454545445 H 1265.8439606769607 V 384.6193181818181" fill="none" stroke="black" stroke-width="1" class="treeEdge" vector-effect="non-scaling-stroke" id="node#141"></path><path d="M 1265.8439606769607 384.6193181818181 H 1256.928907614814 V 372.1676136363636" fill="none" stroke="black" stroke-width="1" class="treeEdge" vector-effect="non-scaling-stroke" id="node#139"></path><path d="M 1259.6522589314313 359.7159090909091 H 1256.928907614814 V 372.1676136363636" fill="none" stroke="black" stroke-width="1" class="treeEdge" vector-effect="non-scaling-stroke" id="node#144"></path><path d="M 1256.928907614814 372.1676136363636 H 1254.3101562920483 V 354.87357954545456" fill="none" stroke="black" stroke-width="1" class="treeEdge" vector-effect="non-scaling-stroke" id="node#138"></path><path d="M 1260.199533160848 337.57954545454555 H 1254.3101562920483 V 354.87357954545456" fill="none" stroke="black" stroke-width="1" class="treeEdge" vector-effect="non-scaling-stroke" id="node#147"></path><path d="M 1254.3101562920483 354.87357954545456 H 1243.9329100669586 V 337.9254261363636" fill="none" stroke="black" stroke-width="1" class="treeEdge" vector-effect="non-scaling-stroke" id="node#137"></path><path d="M 1243.9329100669586 337.9254261363636 H 1233.5342583578959 V 323.91725852272725" fill="none" stroke="black" stroke-width="1" class="treeEdge" vector-effect="non-scaling-stroke" id="node#135"></path><path d="M 1233.5342583578959 323.91725852272725 H 1147.1858600610756 V 308.61203835227263" fill="none" stroke="black" stroke-width="1" class="treeEdge" vector-effect="non-scaling-stroke" id="node#133"></path><path d="M 1194.1914201655657 293.3068181818181 H 1147.1858600610756 V 308.61203835227263" fill="none" stroke="black" stroke-width="1" class="treeEdge" vector-effect="non-scaling-stroke" id="node#130"></path><path d="M 1147.1858600610756 308.61203835227263 H 1093.7134163706944 V 292.65829190340907" fill="none" stroke="black" stroke-width="1" class="treeEdge" vector-effect="non-scaling-stroke" id="node#129"></path><path d="M 1093.7134163706944 292.65829190340907 H 1032.4670305215195 V 276.3802823153409" fill="none" stroke="black" stroke-width="1" class="treeEdge" vector-effect="non-scaling-stroke" id="node#127"></path><path d="M 1168.4995431956659 260.10227272727275 H 1032.4670305215195 V 276.3802823153409" fill="none" stroke="black" stroke-width="1" class="treeEdge" vector-effect="non-scaling-stroke" id="node#150"></path><path d="M 1032.4670305215195 276.3802823153409 H 972.2463425023102 V 259.94014115767044" fill="none" stroke="black" stroke-width="1" class="treeEdge" vector-effect="non-scaling-stroke" id="node#126"></path><path d="M 972.2463425023102 259.94014115767044 H 683.1946312332824 V 408.76070889559657" fill="none" stroke="black" stroke-width="1" class="treeEdge" vector-effect="non-scaling-stroke" id="node#124"></path><path d="M 683.1946312332824 408.76070889559657 H 625.3126578444459 V 291.8881669477982" fill="none" stroke="black" stroke-width="1" class="treeEdge" vector-effect="non-scaling-stroke" id="node#20"></path><path d="M 1113.7868227322224 226.89772727272722 H 1056.6555860080991 V 215.82954545454544" fill="none" stroke="black" stroke-width="1" class="treeEdge" vector-effect="non-scaling-stroke" id="node#159"></path><path d="M 1120.1513130751928 204.76136363636363 H 1056.6555860080991 V 215.82954545454544" fill="none" stroke="black" stroke-width="1" class="treeEdge" vector-effect="non-scaling-stroke" id="node#162"></path><path d="M 1056.6555860080991 215.82954545454544 H 1023.3623348017375 V 201.9943181818182" fill="none" stroke="black" stroke-width="1" class="treeEdge" vector-effect="non-scaling-stroke" id="node#158"></path><path d="M 1023.3623348017375 201.9943181818182 H 967.9714246102712 V 189.54261363636363" fill="none" stroke="black" stroke-width="1" class="treeEdge" vector-effect="non-scaling-stroke" id="node#156"></path><path d="M 967.9714246102712 189.54261363636363 H 897.4743388832522 V 175.015625" fill="none" stroke="black" stroke-width="1" class="treeEdge" vector-effect="non-scaling-stroke" id="node#154"></path><path d="M 1010.2465934318127 160.48863636363637 H 897.4743388832522 V 175.015625" fill="none" stroke="black" stroke-width="1" class="treeEdge" vector-effect="non-scaling-stroke" id="node#165"></path><path d="M 897.4743388832522 175.015625 H 625.3126578444459 V 291.8881669477982" fill="none" stroke="black" stroke-width="1" class="treeEdge" vector-effect="non-scaling-stroke" id="node#153"></path><path d="M 625.3126578444459 291.8881669477982 H 562.3906860178711 V 210.9696516557173" fill="none" stroke="black" stroke-width="1" class="treeEdge" vector-effect="non-scaling-stroke" id="node#19"></path><path d="M 923.585939879103 138.35227272727278 H 759.6885625991499 V 130.05113636363637" fill="none" stroke="black" stroke-width="1" class="treeEdge" vector-effect="non-scaling-stroke" id="node#170"></path><path d="M 759.6885625991499 130.05113636363637 H 562.3906860178711 V 210.9696516557173" fill="none" stroke="black" stroke-width="1" class="treeEdge" vector-effect="non-scaling-stroke" id="node#168"></path><path d="M 562.3906860178711 210.9696516557173 H 421.6293267864165 V 160.82573491876775" fill="none" stroke="black" stroke-width="1" class="treeEdge" vector-effect="non-scaling-stroke" id="node#18"></path><path d="M 421.6293267864165 160.82573491876775 H 194.9944620572154 V 123.30207200483851" fill="none" stroke="black" stroke-width="1" class="treeEdge" vector-effect="non-scaling-stroke" id="node#16"></path><path d="M 330.3762038835651 94.07954545454554 H 239.31859911267293 V 85.77840909090915" fill="none" stroke="black" stroke-width="1" class="treeEdge" vector-effect="non-scaling-stroke" id="node#13"></path><path d="M 239.31859911267293 85.77840909090915 H 194.9944620572154 V 123.30207200483851" fill="none" stroke="black" stroke-width="1" class="treeEdge" vector-effect="non-scaling-stroke" id="node#11"></path><path d="M 194.9944620572154 123.30207200483851 H 162.0430365691392 V 94.85558145696479" fill="none" stroke="black" stroke-width="1" class="treeEdge" vector-effect="non-scaling-stroke" id="node#10"></path><path d="M 162.0430365691392 94.85558145696479 H 105.31386986355282 V 75.09824527393685" fill="none" stroke="black" stroke-width="1" class="treeEdge" vector-effect="non-scaling-stroke" id="node#8"></path><path d="M 105.31386986355282 75.09824527393685 H 77.67718330339521 V 59.685486273332046" fill="none" stroke="black" stroke-width="1" class="treeEdge" vector-effect="non-scaling-stroke" id="node#6"></path><path d="M 77.67718330339521 59.685486273332046 H 46.67409820705226 V 43.67797040939331" fill="none" stroke="black" stroke-width="1" class="treeEdge" vector-effect="non-scaling-stroke" id="node#4"></path><path d="M 56.914967224974966 27.67045454545447 H 46.67409820705226 V 43.67797040939331" fill="none" stroke="black" stroke-width="1" class="treeEdge" vector-effect="non-scaling-stroke" id="node#173"></path><path d="M 46.67409820705226 43.67797040939331 H 18.960396039603978 V 18.248717409191634" fill="none" stroke="black" stroke-width="1" class="treeEdge" vector-effect="non-scaling-stroke" id="node#3"></path><path d="M 18.960396039603978 18.248717409191634 H 0 V 18.248717409191634" fill="none" stroke="black" stroke-width="1" class="treeEdge" vector-effect="non-scaling-stroke" id="node#0"></path><text x="1512.0226942988163" y="974" dominant-baseline="central" transform="matrix(1.19788, 0, 0, 1.07598, 0, 0) matrix(1, 0, 0, 1, -249.777, -68.7748)">MK720946|AlphaCoV|Rhinolophus_bat_coronavirus_HKU32</text><text x="1572.1718835880574" y="962.9318181818182" dominant-baseline="central" transform="matrix(1.19788, 0, 0, 1.07598, 0, 0) matrix(1, 0, 0, 1, -259.713, -67.9933)">NC_028814|AlphaCoV|BatRf_coronavirus_HuB2013</text><text x="1555.696501856671" y="951.8636363636364" dominant-baseline="central" transform="matrix(1.19788, 0, 0, 1.07598, 0, 0) matrix(1, 0, 0, 1, -256.991, -67.2117)">MN611525|AlphaCoV|Hipposideros_pomona_bat_coronavirus_CHB25</text><text x="1519.3292466116932" y="940.7954545454546" dominant-baseline="central" transform="matrix(1.19788, 0, 0, 1.07598, 0, 0) matrix(1, 0, 0, 1, -250.984, -66.4302)">NC_018871|AlphaCoV|Rousettus_bat_coronavirus_HKU10-183A</text><text x="1498.049768116446" y="929.7272727272727" dominant-baseline="central" transform="matrix(1.19788, 0, 0, 1.07598, 0, 0) matrix(1, 0, 0, 1, -247.469, -65.6487)">MK720944|AlphaCoV|Tylonycteris_bat_coronavirus_HKU33_strain_GZ151867</text><text x="1489.5354610222926" y="918.659090909091" dominant-baseline="central" transform="matrix(1.19788, 0, 0, 1.07598, 0, 0) matrix(1, 0, 0, 1, -246.062, -64.8671)">NC_028833|AlphaCoV|BatNv_coronavirus_SC2013</text><text x="1527.3026790541276" y="907.5909090909091" dominant-baseline="central" transform="matrix(1.19788, 0, 0, 1.07598, 0, 0) matrix(1, 0, 0, 1, -252.301, -64.0856)">NC_003436|AlphaCoV|Porcine_epidemic_diarrhea_virus</text><text x="1556.869610648436" y="896.5227272727273" dominant-baseline="central" transform="matrix(1.19788, 0, 0, 1.07598, 0, 0) matrix(1, 0, 0, 1, -257.185, -63.3041)">NC_022103|AlphaCoV|Bat_coronavirus_CDPHE15</text><text x="1510.973825584152" y="885.4545454545454" dominant-baseline="central" transform="matrix(1.19788, 0, 0, 1.07598, 0, 0) matrix(1, 0, 0, 1, -249.603, -62.5226)">MN065811|AlphaCoV|Bat_coronavirus_008_16/M.bra/FIN/2016</text><text x="1523.3252311867989" y="874.3863636363636" dominant-baseline="central" transform="matrix(1.19788, 0, 0, 1.07598, 0, 0) matrix(1, 0, 0, 1, -251.644, -61.741)">NC_009657|AlphaCoV|Scotophilus_bat_coronavirus_512</text><text x="1464.7075270395496" y="863.3181818181818" dominant-baseline="central" transform="matrix(1.19788, 0, 0, 1.07598, 0, 0) matrix(1, 0, 0, 1, -241.961, -60.9595)">KJ473798|AlphaCoV|Bat_coronavirus_HuB2013</text><text x="1442.6358249622108" y="852.25" dominant-baseline="central" transform="matrix(1.19788, 0, 0, 1.07598, 0, 0) matrix(1, 0, 0, 1, -238.314, -60.178)">NC_010438|AlphaCoV|Miniopterus_bat_coronavirus_HKU8</text><text x="1445.971770335612" y="841.1818181818182" dominant-baseline="central" transform="matrix(1.19788, 0, 0, 1.07598, 0, 0) matrix(1, 0, 0, 1, -238.866, -59.3964)">NC_010437|AlphaCoV|Bat_coronavirus_1A</text><text x="1496.0497897530777" y="830.1136363636364" dominant-baseline="central" transform="matrix(1.19788, 0, 0, 1.07598, 0, 0) matrix(1, 0, 0, 1, -247.138, -58.6149)">JQ410000|AlphaCoV|Alpaca_respiratory_coronavirus_CA08-1/2008</text><text x="1494.7599438373825" y="819.0454545454546" dominant-baseline="central" transform="matrix(1.19788, 0, 0, 1.07598, 0, 0) matrix(1, 0, 0, 1, -246.925, -57.8334)">NC_028752|AlphaCoV|Camel_coronavirus_Riyadh/Ry141/2015</text><text x="1493.8584860844915" y="807.9772727272727" dominant-baseline="central" transform="matrix(1.19788, 0, 0, 1.07598, 0, 0) matrix(1, 0, 0, 1, -246.776, -57.0518)">NC_002645|AlphaCoV|Human_coronavirus_229E</text><text x="1468.316668177491" y="796.9090909090909" dominant-baseline="central" transform="matrix(1.19788, 0, 0, 1.07598, 0, 0) matrix(1, 0, 0, 1, -242.557, -56.2703)">KY073747|AlphaCoV|Bat_coronavirus_BtKY229E-1</text><text x="1503.4887471214527" y="785.8409090909091" dominant-baseline="central" transform="matrix(1.19788, 0, 0, 1.07598, 0, 0) matrix(1, 0, 0, 1, -248.367, -55.4888)">NC_005831|AlphaCoV|Human_coronavirus_NL63</text><text x="1494.4752729680422" y="774.7727272727273" dominant-baseline="central" transform="matrix(1.19788, 0, 0, 1.07598, 0, 0) matrix(1, 0, 0, 1, -246.878, -54.7072)">NC_032107|AlphaCoV|Bat_coronavirus_BtKYNL63-9a</text><text x="1513.3487309297025" y="763.7045454545454" dominant-baseline="central" transform="matrix(1.19788, 0, 0, 1.07598, 0, 0) matrix(1, 0, 0, 1, -249.996, -53.9257)">KY073745|AlphaCoV|Bat_coronavirus_BtKYNL63-9b</text><text x="1395.789592274501" y="752.6363636363636" dominant-baseline="central" transform="matrix(1.19788, 0, 0, 1.07598, 0, 0) matrix(1, 0, 0, 1, -230.576, -53.1442)">MH615810|AlphaCoV|Swine_acute_diarrhea_syndrome_coronavirus_CH-FJWT-2018</text><text x="1385.6740667091128" y="741.5681818181818" dominant-baseline="central" transform="matrix(1.19788, 0, 0, 1.07598, 0, 0) matrix(1, 0, 0, 1, -228.905, -52.3626)">NC_009988|AlphaCoV|Rhinolophus_bat_coronavirus_HKU2</text><text x="1378.6885966558386" y="730.5" dominant-baseline="central" transform="matrix(1.19788, 0, 0, 1.07598, 0, 0) matrix(1, 0, 0, 1, -227.751, -51.5811)">NC_028824|AlphaCoV|BatRf_coronavirus_YN2012</text><text x="1401.962977987351" y="719.4318181818182" dominant-baseline="central" transform="matrix(1.19788, 0, 0, 1.07598, 0, 0) matrix(1, 0, 0, 1, -231.596, -50.7996)">NC_028811|AlphaCoV|BatMr_coronavirus_SAX2011</text><text x="1455.500300154931" y="708.3636363636364" dominant-baseline="central" transform="matrix(1.19788, 0, 0, 1.07598, 0, 0) matrix(1, 0, 0, 1, -240.44, -50.018)">KX499468|AlphaCoV|Porcine_transmissible_gastroenteritis_virus_AHHF</text><text x="1503.7425234778282" y="697.2954545454545" dominant-baseline="central" transform="matrix(1.19788, 0, 0, 1.07598, 0, 0) matrix(1, 0, 0, 1, -248.409, -49.2365)">NC_028806|AlphaCoV|Swine_enteric_coronavirus_Italy/213306/2009</text><text x="1457.588769230403" y="686.2272727272727" dominant-baseline="central" transform="matrix(1.19788, 0, 0, 1.07598, 0, 0) matrix(1, 0, 0, 1, -240.785, -48.455)">NC_002306|AlphaCoV|Feline_infectious_peritonitis_virus_79-1146</text><text x="1441.3016233529152" y="675.1590909090909" dominant-baseline="central" transform="matrix(1.19788, 0, 0, 1.07598, 0, 0) matrix(1, 0, 0, 1, -238.094, -47.6734)">JQ404409|AlphaCoV|Canine_coronavirus_strain_1-71</text><text x="1450.8288291216772" y="664.0909090909091" dominant-baseline="central" transform="matrix(1.19788, 0, 0, 1.07598, 0, 0) matrix(1, 0, 0, 1, -239.668, -46.8919)">KP849472|AlphaCoV|Canine_coronavirus_1_strain_23/03</text><text x="1422.4175729868164" y="653.0227272727273" dominant-baseline="central" transform="matrix(1.19788, 0, 0, 1.07598, 0, 0) matrix(1, 0, 0, 1, -234.975, -46.1104)">MH817484|AlphaCoV|Feline_alphacoronavirus_1_SB22</text><text x="1472.5205286897185" y="641.9545454545455" dominant-baseline="central" transform="matrix(1.19788, 0, 0, 1.07598, 0, 0) matrix(1, 0, 0, 1, -243.251, -45.3288)">LC119077|AlphaCoV|Ferret_coronavirus_FRCoV4370</text><text x="1491.9604596138377" y="630.8863636363636" dominant-baseline="central" transform="matrix(1.19788, 0, 0, 1.07598, 0, 0) matrix(1, 0, 0, 1, -246.463, -44.5473)">NC_030292|AlphaCoV|Ferret_coronavirus_FRCoV-NL-2010</text><text x="1448.079438144139" y="619.8181818181818" dominant-baseline="central" transform="matrix(1.19788, 0, 0, 1.07598, 0, 0) matrix(1, 0, 0, 1, -239.214, -43.7658)">MF113046|AlphaCoV|Mink_coronavirus_China/1/2016</text><text x="1465.4602497800854" y="608.75" dominant-baseline="central" transform="matrix(1.19788, 0, 0, 1.07598, 0, 0) matrix(1, 0, 0, 1, -242.085, -42.9843)">NC_023760|AlphaCoV|Mink_coronavirus_WD1127</text><text x="1356.4231418472789" y="597.6818181818182" dominant-baseline="central" transform="matrix(1.19788, 0, 0, 1.07598, 0, 0) matrix(1, 0, 0, 1, -224.073, -42.2027)">KF294380|AlphaCoV|Rat_coronavirus_Lucheng-19</text><text x="1351.2600067079252" y="586.6136363636364" dominant-baseline="central" transform="matrix(1.19788, 0, 0, 1.07598, 0, 0) matrix(1, 0, 0, 1, -223.22, -41.4212)">NC_034972|AlphaCoV|Murine_coronavirus_AcCoV-JC34</text><text x="1900.0241055221811" y="575.5454545454545" dominant-baseline="central" transform="matrix(1.19788, 0, 0, 1.07598, 0, 0) matrix(1, 0, 0, 1, -313.872, -40.6397)">NC_016992|DeltaCoV|Sparrow_coronavirus_HKU17</text><text x="1915" y="564.4772727272727" dominant-baseline="central" transform="matrix(1.19788, 0, 0, 1.07598, 0, 0) matrix(1, 0, 0, 1, -316.346, -39.8581)">NC_039208|DeltaCoV|Porcine_coronavirus_HKU15-155</text><text x="1875.4287630869374" y="553.4090909090909" dominant-baseline="central" transform="matrix(1.19788, 0, 0, 1.07598, 0, 0) matrix(1, 0, 0, 1, -309.809, -39.0766)">NC_011550|DeltaCoV|Munia_coronavirus_HKU13-3514</text><text x="1894.318771680527" y="542.3409090909091" dominant-baseline="central" transform="matrix(1.19788, 0, 0, 1.07598, 0, 0) matrix(1, 0, 0, 1, -312.93, -38.2951)">NC_016993|DeltaCoV|Magpie-robin_coronavirus_HKU18</text><text x="1772.9673315606144" y="531.2727272727273" dominant-baseline="central" transform="matrix(1.19788, 0, 0, 1.07598, 0, 0) matrix(1, 0, 0, 1, -292.883, -37.5135)">NC_016991|DeltaCoV|White-eye_coronavirus_HKU16</text><text x="1717.794811652798" y="520.2045454545455" dominant-baseline="central" transform="matrix(1.19788, 0, 0, 1.07598, 0, 0) matrix(1, 0, 0, 1, -283.769, -36.732)">NC_011547|DeltaCoV|Bulbul_coronavirus_HKU11-934</text><text x="1668.3352479742748" y="509.1363636363636" dominant-baseline="central" transform="matrix(1.19788, 0, 0, 1.07598, 0, 0) matrix(1, 0, 0, 1, -275.599, -35.9505)">NC_011549|DeltaCoV|Thrush_coronavirus_HKU12-600</text><text x="1569.8737731747135" y="498.0681818181818" dominant-baseline="central" transform="matrix(1.19788, 0, 0, 1.07598, 0, 0) matrix(1, 0, 0, 1, -259.333, -35.1689)">NC_016996|DeltaCoV|Common_moorhen_coronavirus_HKU21</text><text x="1697.1503395284224" y="487" dominant-baseline="central" transform="matrix(1.19788, 0, 0, 1.07598, 0, 0) matrix(1, 0, 0, 1, -280.359, -34.3874)">NC_016994|DeltaCoV|Night_heron_coronavirus_HKU19</text><text x="1690.409156802545" y="475.9318181818182" dominant-baseline="central" transform="matrix(1.19788, 0, 0, 1.07598, 0, 0) matrix(1, 0, 0, 1, -279.245, -33.6059)">NC_016995|DeltaCoV|Wigeon_coronavirus_HKU20</text><text x="1366.5647070736004" y="464.8636363636364" dominant-baseline="central" transform="matrix(1.19788, 0, 0, 1.07598, 0, 0) matrix(1, 0, 0, 1, -225.748, -32.8243)">NC_001451|GammaCoV|Avian_infectious_bronchitis_virus</text><text x="1365.923204579686" y="453.79545454545456" dominant-baseline="central" transform="matrix(1.19788, 0, 0, 1.07598, 0, 0) matrix(1, 0, 0, 1, -225.642, -32.0428)">NC_010800|GammaCoV|Turkey_coronavirus_MG10</text><text x="1345.9618184119608" y="442.72727272727275" dominant-baseline="central" transform="matrix(1.19788, 0, 0, 1.07598, 0, 0) matrix(1, 0, 0, 1, -222.345, -31.2613)">MK423876|GammaCoV|Pheasant_coronavirus_ph/China/I0710/17</text><text x="1286.2530966073662" y="431.65909090909093" dominant-baseline="central" transform="matrix(1.19788, 0, 0, 1.07598, 0, 0) matrix(1, 0, 0, 1, -212.481, -30.4797)">KM454473|GammaCoV|Duck_coronavirus_DK/GD/27/2014</text><text x="1412.9091246009405" y="420.59090909090907" dominant-baseline="central" transform="matrix(1.19788, 0, 0, 1.07598, 0, 0) matrix(1, 0, 0, 1, -233.404, -29.6982)">KF793824|GammaCoV|Bottlenose_dolphin_coronavirus_HKU22_strain_CF090325</text><text x="1415.2160620179855" y="409.52272727272725" dominant-baseline="central" transform="matrix(1.19788, 0, 0, 1.07598, 0, 0) matrix(1, 0, 0, 1, -233.785, -28.9167)">NC_010646|GammaCoV|Beluga_whale_coronavirus_SW1</text><text x="1269.5786659425332" y="398.45454545454544" dominant-baseline="central" transform="matrix(1.19788, 0, 0, 1.07598, 0, 0) matrix(1, 0, 0, 1, -209.727, -28.1351)">EF424621|BetaCoV|Sable_antelope_coronavirus_US/OH1/2003</text><text x="1269.3838098358528" y="387.3863636363636" dominant-baseline="central" transform="matrix(1.19788, 0, 0, 1.07598, 0, 0) matrix(1, 0, 0, 1, -209.694, -27.3536)">EF424623|BetaCoV|Giraffe_coronavirus_US/OH3/2003</text><text x="1266.8303783404672" y="376.3181818181818" dominant-baseline="central" transform="matrix(1.19788, 0, 0, 1.07598, 0, 0) matrix(1, 0, 0, 1, -209.273, -26.5721)">NC_003045|BetaCoV|Bovine_coronavirus_ENT</text><text x="1275.8696714796886" y="365.25" dominant-baseline="central" transform="matrix(1.19788, 0, 0, 1.07598, 0, 0) matrix(1, 0, 0, 1, -210.766, -25.7906)">MG518518|BetaCoV|Water_deer_coronavirus_W17-18</text><text x="1271.867508002008" y="354.1818181818182" dominant-baseline="central" transform="matrix(1.19788, 0, 0, 1.07598, 0, 0) matrix(1, 0, 0, 1, -210.105, -25.009)">MN514966|BetaCoV|Dromedary_camel_coronavirus_HKU23</text><text x="1262.3533220637003" y="343.1136363636364" dominant-baseline="central" transform="matrix(1.19788, 0, 0, 1.07598, 0, 0) matrix(1, 0, 0, 1, -208.533, -24.2275)">JX860640|BetaCoV|Canine_respiratory_coronavirus_K37</text><text x="1274.395561861751" y="332.04545454545456" dominant-baseline="central" transform="matrix(1.19788, 0, 0, 1.07598, 0, 0) matrix(1, 0, 0, 1, -210.522, -23.446)">MH810163|BetaCoV|Yak_coronavirus_YAK/HY24/CH/2017</text><text x="1258.2476619676272" y="320.97727272727275" dominant-baseline="central" transform="matrix(1.19788, 0, 0, 1.07598, 0, 0) matrix(1, 0, 0, 1, -207.855, -22.6644)">NC_006213|BetaCoV|Human_coronavirus_OC43_strain_ATCC_VR-759</text><text x="1253.7136715169995" y="309.90909090909093" dominant-baseline="central" transform="matrix(1.19788, 0, 0, 1.07598, 0, 0) matrix(1, 0, 0, 1, -207.106, -21.8829)">KY994645|BetaCoV|Porcine_hemagglutinating_encephalomyelitis_JL/2008</text><text x="1249.2807502587361" y="298.84090909090907" dominant-baseline="central" transform="matrix(1.19788, 0, 0, 1.07598, 0, 0) matrix(1, 0, 0, 1, -206.373, -21.1014)">EF446615|BetaCoV|Equine_coronavirus_NC99</text><text x="1250.5346261343502" y="287.77272727272725" dominant-baseline="central" transform="matrix(1.19788, 0, 0, 1.07598, 0, 0) matrix(1, 0, 0, 1, -206.581, -20.3198)">NC_017083|BetaCoV|Rabbit_coronavirus_HKU14</text><text x="1265.1993687317392" y="276.70454545454544" dominant-baseline="central" transform="matrix(1.19788, 0, 0, 1.07598, 0, 0) matrix(1, 0, 0, 1, -209.003, -19.5383)">NC_026011|BetaCoV|Rat_Betacoronavirus_HKU24</text><text x="1204.8122916927862" y="265.6363636363636" dominant-baseline="central" transform="matrix(1.19788, 0, 0, 1.07598, 0, 0) matrix(1, 0, 0, 1, -199.028, -18.7568)">FJ647224|BetaCoV|Murine_coronavirus_MHV-3</text><text x="1222.7046281931653" y="254.5681818181818" dominant-baseline="central" transform="matrix(1.19788, 0, 0, 1.07598, 0, 0) matrix(1, 0, 0, 1, -201.983, -17.9752)">NC_012936|BetaCoV|Rat_coronavirus_Parker</text><text x="1150.025065801261" y="243.5" dominant-baseline="central" transform="matrix(1.19788, 0, 0, 1.07598, 0, 0) matrix(1, 0, 0, 1, -189.977, -17.1937)">NC_006577|BetaCoV|Human_coronavirus_HKU1</text><text x="1192.4288054485478" y="232.4318181818182" dominant-baseline="central" transform="matrix(1.19788, 0, 0, 1.07598, 0, 0) matrix(1, 0, 0, 1, -196.982, -16.4122)">NC_019843|BetaCoV|Human_MERS_coronavirus</text><text x="1195.1519360900681" y="221.36363636363637" dominant-baseline="central" transform="matrix(1.19788, 0, 0, 1.07598, 0, 0) matrix(1, 0, 0, 1, -197.432, -15.6306)">NC_034440|BetaCoV|Bat_coronavirus_PREDICT/PDF-2180</text><text x="1189.1687723069645" y="210.29545454545456" dominant-baseline="central" transform="matrix(1.19788, 0, 0, 1.07598, 0, 0) matrix(1, 0, 0, 1, -196.443, -14.8491)">KJ473821|BetaCoV|Bat_coronavirus_SC2013</text><text x="1235.3253953305868" y="199.22727272727278" dominant-baseline="central" transform="matrix(1.19788, 0, 0, 1.07598, 0, 0) matrix(1, 0, 0, 1, -204.068, -14.0676)">KX442564|BetaCoV|Hypsugo_bat_coronavirus_HKU25_isolate_YD131305</text><text x="1217.883236018917" y="188.15909090909096" dominant-baseline="central" transform="matrix(1.19788, 0, 0, 1.07598, 0, 0) matrix(1, 0, 0, 1, -201.187, -13.286)">NC_009020|BetaCoV|Pipistrellus_bat_coronavirus_HKU5</text><text x="1124.982194278395" y="177.09090909090904" dominant-baseline="central" transform="matrix(1.19788, 0, 0, 1.07598, 0, 0) matrix(1, 0, 0, 1, -185.84, -12.5045)">NC_039207|BetaCoV|Hedgehog_coronavirus_VMC/DEU/2012</text><text x="1058.2816028428535" y="166.02272727272722" dominant-baseline="central" transform="matrix(1.19788, 0, 0, 1.07598, 0, 0) matrix(1, 0, 0, 1, -174.822, -11.723)">KU182965|BetaCoV|Bat_coronavirus_JPDB144</text><text x="1076.0002680454288" y="154.95454545454544" dominant-baseline="central" transform="matrix(1.19788, 0, 0, 1.07598, 0, 0) matrix(1, 0, 0, 1, -177.749, -10.9414)">NC_009019|BetaCoV|Tylonycteris_bat_coronavirus_HKU4</text><text x="1018.86925199639" y="143.88636363636363" dominant-baseline="central" transform="matrix(1.19788, 0, 0, 1.07598, 0, 0) matrix(1, 0, 0, 1, -168.311, -10.1599)">EF065514|BetaCoV|Bat_coronavirus_HKU9-2</text><text x="1014.1712999520344" y="132.8181818181818" dominant-baseline="central" transform="matrix(1.19788, 0, 0, 1.07598, 0, 0) matrix(1, 0, 0, 1, -167.535, -9.37838)">NC_009021|BetaCoV|Rousettus_bat_coronavirus_HKU9</text><text x="980.6097078331896" y="121.75" dominant-baseline="central" transform="matrix(1.19788, 0, 0, 1.07598, 0, 0) matrix(1, 0, 0, 1, -161.991, -8.59685)">NC_030886|BetaCoV|Rousettus_bat_coronavirus_GCCDC1_356</text><text x="724.721490816126" y="110.68181818181819" dominant-baseline="central" transform="matrix(1.19788, 0, 0, 1.07598, 0, 0) matrix(1, 0, 0, 1, -119.719, -7.81532)">NC_025217|BetaCoV|BatHp_coronavirus_Zhejiang2013</text><text x="351.09450561857886" y="99.61363636363639" dominant-baseline="central" transform="matrix(1.19788, 0, 0, 1.07598, 0, 0) matrix(1, 0, 0, 1, -57.9986, -7.03379)">MN996532|BetaCoV|Bat_coronavirus_RaTG13</text><text x="350.96982419131007" y="88.54545454545458" dominant-baseline="central" transform="matrix(1.19788, 0, 0, 1.07598, 0, 0) matrix(1, 0, 0, 1, -57.978, -6.25226)">NC_045512|BetaCoV|Human_SARS-CoV-2_strain_Wuhan-Hu-1</text><text x="374.0511148168669" y="77.47727272727276" dominant-baseline="central" transform="matrix(1.19788, 0, 0, 1.07598, 0, 0) matrix(1, 0, 0, 1, -61.7909, -5.47072)">MT040335|BetaCoV|Pangolin_coronavirus_PCoV_GX-P5L</text><text x="303.9342522742297" y="66.40909090909096" dominant-baseline="central" transform="matrix(1.19788, 0, 0, 1.07598, 0, 0) matrix(1, 0, 0, 1, -50.208, -4.68919)">NC_014470|BetaCoV|Bat_coronavirus_BM48-31/BGR/2008</text><text x="186.34046762949183" y="55.340909090909044" dominant-baseline="central" transform="matrix(1.19788, 0, 0, 1.07598, 0, 0) matrix(1, 0, 0, 1, -30.7823, -3.90766)">DQ022305|BetaCoV|Bat_coronavirus_HKU3-1</text><text x="144.61654518903623" y="44.27272727272723" dominant-baseline="central" transform="matrix(1.19788, 0, 0, 1.07598, 0, 0) matrix(1, 0, 0, 1, -23.8898, -3.12613)">JX993988|BetaCoV|Bat_coronavirus_Yunnan2011</text><text x="83.1689036554958" y="33.204545454545425" dominant-baseline="central" transform="matrix(1.19788, 0, 0, 1.07598, 0, 0) matrix(1, 0, 0, 1, -13.739, -2.3446)">DQ071615|BetaCoV|Bat_coronavirus_Rp3/2004</text><text x="77.70609174051285" y="22.136363636363615" dominant-baseline="central" transform="matrix(1.19788, 0, 0, 1.07598, 0, 0) matrix(1, 0, 0, 1, -12.8366, -1.56306)">KT444582|BetaCoV|Bat_coronavirus_WIV16</text><text x="19.958068132827158" y="11.068181818181808" dominant-baseline="central" transform="matrix(1.19788, 0, 0, 1.07598, 0, 0) matrix(1, 0, 0, 1, -3.29695, -0.781532)">AY304486|BetaCoV|Civet_coronavirus_SZ3/2003</text><text x="20.660918302452885" y="0" dominant-baseline="central" transform="matrix(1.19788, 0, 0, 1.07598, 0, 0) matrix(1, 0, 0, 1, -3.41306, -0)">NC_004718|BetaCoV|Human_SARS_coronavirus_Tor2</text></svg>