<svg xmlns="http://www.w3.org/2000/svg" version="1.1" width="1275" height="614" preserveAspectRatio="none" style="stroke-width: 1px; font-size: 9px; font-family: sans-serif; shape-rendering: crispedges;" id="SVG" viewBox="-20 -45.5 1603.397216796875 685"><rect id="backgroundRect" x="-20" y="-45.5" width="1603.397216796875" height="685" fill="white"></rect><path d="M 991.0129672570899 614 H 984.4732469634417 V 610.5113636363636" fill="none" stroke="black" stroke-width="1" class="treeEdge" vector-effect="non-scaling-stroke" id="node#84"></path><path d="M 990.4985747605353 607.0227272727273 H 984.4732469634417 V 610.5113636363636" fill="none" stroke="black" stroke-width="1" class="treeEdge" vector-effect="non-scaling-stroke" id="node#85"></path><path d="M 994.2292579965921 600.0454545454545 H 964.3106085204907 V 605.2784090909091" fill="none" stroke="black" stroke-width="1" class="treeEdge" vector-effect="non-scaling-stroke" id="node#82"></path><path d="M 1030.0457542689314 593.0681818181819 H 880.3708360013575 V 599.1732954545455" fill="none" stroke="black" stroke-width="1" class="treeEdge" vector-effect="non-scaling-stroke" id="node#80"></path><path d="M 961.2976944615788 586.0909090909091 H 864.2045553188973 V 582.6022727272727" fill="none" stroke="black" stroke-width="1" class="treeEdge" vector-effect="non-scaling-stroke" id="node#87"></path><path d="M 931.2709078235949 579.1136363636364 H 864.2045553188973 V 582.6022727272727" fill="none" stroke="black" stroke-width="1" class="treeEdge" vector-effect="non-scaling-stroke" id="node#88"></path><path d="M 935.5681743999507 572.1363636363636 H 839.265736605228 V 568.6477272727273" fill="none" stroke="black" stroke-width="1" class="treeEdge" vector-effect="non-scaling-stroke" id="node#90"></path><path d="M 913.9263768829529 565.1590909090909 H 839.265736605228 V 568.6477272727273" fill="none" stroke="black" stroke-width="1" class="treeEdge" vector-effect="non-scaling-stroke" id="node#91"></path><path d="M 921.9714443505135 558.1818181818181 H 821.6253841712148 V 554.6931818181819" fill="none" stroke="black" stroke-width="1" class="treeEdge" vector-effect="non-scaling-stroke" id="node#75"></path><path d="M 903.5466302248765 551.2045454545455 H 821.6253841712148 V 554.6931818181819" fill="none" stroke="black" stroke-width="1" class="treeEdge" vector-effect="non-scaling-stroke" id="node#76"></path><path d="M 908.5047863078702 544.2272727272727 H 893.5211061744587 V 540.7386363636364" fill="none" stroke="black" stroke-width="1" class="treeEdge" vector-effect="non-scaling-stroke" id="node#95"></path><path d="M 913.7887112463216 537.25 H 893.5211061744587 V 540.7386363636364" fill="none" stroke="black" stroke-width="1" class="treeEdge" vector-effect="non-scaling-stroke" id="node#96"></path><path d="M 912.6039121134776 530.2727272727273 H 798.05209628365 V 535.5056818181819" fill="none" stroke="black" stroke-width="1" class="treeEdge" vector-effect="non-scaling-stroke" id="node#93"></path><path d="M 816.8784866462458 523.2954545454545 H 768.7515441025022 V 519.8068181818181" fill="none" stroke="black" stroke-width="1" class="treeEdge" vector-effect="non-scaling-stroke" id="node#99"></path><path d="M 847.1947247625031 516.3181818181819 H 768.7515441025022 V 519.8068181818181" fill="none" stroke="black" stroke-width="1" class="treeEdge" vector-effect="non-scaling-stroke" id="node#100"></path><path d="M 839.2171312208021 509.3409090909091 H 780.8396588467288 V 505.85227272727275" fill="none" stroke="black" stroke-width="1" class="treeEdge" vector-effect="non-scaling-stroke" id="node#102"></path><path d="M 814.6225846853781 502.3636363636363 H 780.8396588467288 V 505.85227272727275" fill="none" stroke="black" stroke-width="1" class="treeEdge" vector-effect="non-scaling-stroke" id="node#103"></path><path d="M 840.8222438178911 495.3863636363637 H 837.1637382165283 V 491.89772727272725" fill="none" stroke="black" stroke-width="1" class="treeEdge" vector-effect="non-scaling-stroke" id="node#69"></path><path d="M 838.486893873962 488.4090909090909 H 837.1637382165283 V 491.89772727272725" fill="none" stroke="black" stroke-width="1" class="treeEdge" vector-effect="non-scaling-stroke" id="node#70"></path><path d="M 829.1488851439327 481.4318181818182 H 812.7501445752466 V 486.66477272727275" fill="none" stroke="black" stroke-width="1" class="treeEdge" vector-effect="non-scaling-stroke" id="node#67"></path><path d="M 803.3064484667063 474.45454545454544 H 797.375348344756 V 480.5596590909091" fill="none" stroke="black" stroke-width="1" class="treeEdge" vector-effect="non-scaling-stroke" id="node#65"></path><path d="M 942.2242388806729 467.47727272727275 H 813.0288046679697 V 463.9886363636363" fill="none" stroke="black" stroke-width="1" class="treeEdge" vector-effect="non-scaling-stroke" id="node#62"></path><path d="M 842.9639419414319 460.5 H 813.0288046679697 V 463.9886363636363" fill="none" stroke="black" stroke-width="1" class="treeEdge" vector-effect="non-scaling-stroke" id="node#63"></path><path d="M 842.5700108487335 453.52272727272725 H 777.0193671236234 V 458.7556818181818" fill="none" stroke="black" stroke-width="1" class="treeEdge" vector-effect="non-scaling-stroke" id="node#60"></path><path d="M 819.3895997954264 446.54545454545456 H 812.5838522761525 V 443.0568181818182" fill="none" stroke="black" stroke-width="1" class="treeEdge" vector-effect="non-scaling-stroke" id="node#118"></path><path d="M 831.6543140648807 439.56818181818176 H 812.5838522761525 V 443.0568181818182" fill="none" stroke="black" stroke-width="1" class="treeEdge" vector-effect="non-scaling-stroke" id="node#119"></path><path d="M 805.836410905083 432.5909090909091 H 793.1256681164396 V 437.8238636363636" fill="none" stroke="black" stroke-width="1" class="treeEdge" vector-effect="non-scaling-stroke" id="node#116"></path><path d="M 806.4141815905389 425.6136363636363 H 798.5098009758426 V 422.125" fill="none" stroke="black" stroke-width="1" class="treeEdge" vector-effect="non-scaling-stroke" id="node#121"></path><path d="M 808.510973638874 418.6363636363637 H 798.5098009758426 V 422.125" fill="none" stroke="black" stroke-width="1" class="treeEdge" vector-effect="non-scaling-stroke" id="node#122"></path><path d="M 793.2699313346214 411.6590909090909 H 767.3029244530935 V 420.8167613636363" fill="none" stroke="black" stroke-width="1" class="treeEdge" vector-effect="non-scaling-stroke" id="node#113"></path><path d="M 814.1665677751265 404.68181818181824 H 794.5289861387628 V 401.1931818181818" fill="none" stroke="black" stroke-width="1" class="treeEdge" vector-effect="non-scaling-stroke" id="node#107"></path><path d="M 841.478564432866 397.70454545454544 H 794.5289861387628 V 401.1931818181818" fill="none" stroke="black" stroke-width="1" class="treeEdge" vector-effect="non-scaling-stroke" id="node#108"></path><path d="M 846.038355871346 390.72727272727275 H 828.7262436512242 V 387.2386363636363" fill="none" stroke="black" stroke-width="1" class="treeEdge" vector-effect="non-scaling-stroke" id="node#110"></path><path d="M 855.2664128890643 383.75 H 828.7262436512242 V 387.2386363636363" fill="none" stroke="black" stroke-width="1" class="treeEdge" vector-effect="non-scaling-stroke" id="node#111"></path><path d="M 816.4085140109676 376.77272727272725 H 713.5264996667554 V 373.2840909090909" fill="none" stroke="black" stroke-width="1" class="treeEdge" vector-effect="non-scaling-stroke" id="node#54"></path><path d="M 783.9091801833367 369.79545454545456 H 713.5264996667554 V 373.2840909090909" fill="none" stroke="black" stroke-width="1" class="treeEdge" vector-effect="non-scaling-stroke" id="node#55"></path><path d="M 1255.9784120449583 362.81818181818176 H 1239.621388157738 V 359.32954545454544" fill="none" stroke="black" stroke-width="1" class="treeEdge" vector-effect="non-scaling-stroke" id="node#37"></path><path d="M 1275 355.8409090909091 H 1239.621388157738 V 359.32954545454544" fill="none" stroke="black" stroke-width="1" class="treeEdge" vector-effect="non-scaling-stroke" id="node#38"></path><path d="M 1183.1000960909828 348.8636363636363 H 1154.6940073633718 V 354.0965909090909" fill="none" stroke="black" stroke-width="1" class="treeEdge" vector-effect="non-scaling-stroke" id="node#35"></path><path d="M 1165.5513226963267 341.8863636363637 H 1139.865532073481 V 347.99147727272725" fill="none" stroke="black" stroke-width="1" class="treeEdge" vector-effect="non-scaling-stroke" id="node#33"></path><path d="M 1157.4987943291005 334.9090909090909 H 1102.2270666485454 V 331.42045454545456" fill="none" stroke="black" stroke-width="1" class="treeEdge" vector-effect="non-scaling-stroke" id="node#40"></path><path d="M 1126.184988058209 327.93181818181824 H 1102.2270666485454 V 331.42045454545456" fill="none" stroke="black" stroke-width="1" class="treeEdge" vector-effect="non-scaling-stroke" id="node#41"></path><path d="M 1088.379192955802 320.95454545454544 H 1053.474922694594 V 330.3302556818182" fill="none" stroke="black" stroke-width="1" class="treeEdge" vector-effect="non-scaling-stroke" id="node#30"></path><path d="M 1038.0488587512662 313.97727272727275 H 981.4269084212261 V 322.15376420454544" fill="none" stroke="black" stroke-width="1" class="treeEdge" vector-effect="non-scaling-stroke" id="node#28"></path><path d="M 1014.9455037407541 307 H 825.6909614703391 V 314.57688210227275" fill="none" stroke="black" stroke-width="1" class="treeEdge" vector-effect="non-scaling-stroke" id="node#26"></path><path d="M 944.1770790727387 300.02272727272725 H 767.4590095986011 V 307.2998046875" fill="none" stroke="black" stroke-width="1" class="treeEdge" vector-effect="non-scaling-stroke" id="node#24"></path><path d="M 714.6919123185892 293.04545454545456 H 699.7979058161294 V 289.55681818181824" fill="none" stroke="black" stroke-width="1" class="treeEdge" vector-effect="non-scaling-stroke" id="node#44"></path><path d="M 713.2602822545048 286.0681818181818 H 699.7979058161294 V 289.55681818181824" fill="none" stroke="black" stroke-width="1" class="treeEdge" vector-effect="non-scaling-stroke" id="node#45"></path><path d="M 778.7037015485799 279.0909090909091 H 707.3391359988005 V 275.6022727272728" fill="none" stroke="black" stroke-width="1" class="treeEdge" vector-effect="non-scaling-stroke" id="node#47"></path><path d="M 727.8998464471796 272.1136363636364 H 707.3391359988005 V 275.6022727272728" fill="none" stroke="black" stroke-width="1" class="treeEdge" vector-effect="non-scaling-stroke" id="node#48"></path><path d="M 726.1611383085608 265.1363636363636 H 720.2197137852984 V 261.6477272727272" fill="none" stroke="black" stroke-width="1" class="treeEdge" vector-effect="non-scaling-stroke" id="node#50"></path><path d="M 730.4612099194654 258.1590909090909 H 720.2197137852984 V 261.6477272727272" fill="none" stroke="black" stroke-width="1" class="treeEdge" vector-effect="non-scaling-stroke" id="node#51"></path><path d="M 689.640101042537 251.18181818181816 H 688.3468045654369 V 244.20454545454538" fill="none" stroke="black" stroke-width="1" class="treeEdge" vector-effect="non-scaling-stroke" id="node#141"></path><path d="M 689.607248814923 244.20454545454544 H 688.3468045654369 V 244.20454545454538" fill="none" stroke="black" stroke-width="1" class="treeEdge" vector-effect="non-scaling-stroke" id="node#142"></path><path d="M 689.658725756638 237.22727272727272 H 688.3468045654369 V 244.20454545454538" fill="none" stroke="black" stroke-width="1" class="treeEdge" vector-effect="non-scaling-stroke" id="node#143"></path><path d="M 691.9372932705506 230.25 H 690.1985807702702 V 226.76136363636368" fill="none" stroke="black" stroke-width="1" class="treeEdge" vector-effect="non-scaling-stroke" id="node#145"></path><path d="M 701.3333471560529 223.27272727272728 H 690.1985807702702 V 226.76136363636368" fill="none" stroke="black" stroke-width="1" class="treeEdge" vector-effect="non-scaling-stroke" id="node#146"></path><path d="M 678.5907099886479 216.29545454545456 H 677.2544464207232 V 220.36553030303028" fill="none" stroke="black" stroke-width="1" class="treeEdge" vector-effect="non-scaling-stroke" id="node#137"></path><path d="M 686.2021749270154 209.31818181818184 H 677.2544464207232 V 220.36553030303028" fill="none" stroke="black" stroke-width="1" class="treeEdge" vector-effect="non-scaling-stroke" id="node#138"></path><path d="M 681.9645823118318 202.34090909090912 H 671.1041973988222 V 211.35321969696972" fill="none" stroke="black" stroke-width="1" class="treeEdge" vector-effect="non-scaling-stroke" id="node#135"></path><path d="M 673.0715350652669 195.3636363636364 H 666.1401824691384 V 203.3584280303031" fill="none" stroke="black" stroke-width="1" class="treeEdge" vector-effect="non-scaling-stroke" id="node#133"></path><path d="M 692.6758331974456 188.3863636363636 H 673.9029483780349 V 184.89772727272722" fill="none" stroke="black" stroke-width="1" class="treeEdge" vector-effect="non-scaling-stroke" id="node#130"></path><path d="M 692.079705340553 181.40909090909088 H 673.9029483780349 V 184.89772727272722" fill="none" stroke="black" stroke-width="1" class="treeEdge" vector-effect="non-scaling-stroke" id="node#131"></path><path d="M 696.8125890714908 174.43181818181816 H 637.4713684892943 V 179.66477272727266" fill="none" stroke="black" stroke-width="1" class="treeEdge" vector-effect="non-scaling-stroke" id="node#128"></path><path d="M 706.8796326033275 167.45454545454544 H 584.0676342527828 V 179.48307291666663" fill="none" stroke="black" stroke-width="1" class="treeEdge" vector-effect="non-scaling-stroke" id="node#125"></path><path d="M 606.7523122579196 160.47727272727272 H 592.0517701824018 V 156.98863636363632" fill="none" stroke="black" stroke-width="1" class="treeEdge" vector-effect="non-scaling-stroke" id="node#148"></path><path d="M 624.8382964443263 153.5 H 592.0517701824018 V 156.98863636363632" fill="none" stroke="black" stroke-width="1" class="treeEdge" vector-effect="non-scaling-stroke" id="node#149"></path><path d="M 591.3748718229642 146.52272727272728 H 559.1565019403729 V 143.03409090909088" fill="none" stroke="black" stroke-width="1" class="treeEdge" vector-effect="non-scaling-stroke" id="node#156"></path><path d="M 602.4582412386721 139.54545454545456 H 559.1565019403729 V 143.03409090909088" fill="none" stroke="black" stroke-width="1" class="treeEdge" vector-effect="non-scaling-stroke" id="node#157"></path><path d="M 571.4448844239381 132.56818181818184 H 545.389374969111 V 129.07954545454544" fill="none" stroke="black" stroke-width="1" class="treeEdge" vector-effect="non-scaling-stroke" id="node#159"></path><path d="M 618.6723331862908 125.59090909090912 H 545.389374969111 V 129.07954545454544" fill="none" stroke="black" stroke-width="1" class="treeEdge" vector-effect="non-scaling-stroke" id="node#160"></path><path d="M 554.6614365223164 118.61363636363639 H 519.3419429434127 V 130.2424242424242" fill="none" stroke="black" stroke-width="1" class="treeEdge" vector-effect="non-scaling-stroke" id="node#154"></path><path d="M 563.5405450356695 111.63636363636361 H 469.58182941015735 V 120.9393939393939" fill="none" stroke="black" stroke-width="1" class="treeEdge" vector-effect="non-scaling-stroke" id="node#152"></path><path d="M 516.3832120955007 104.65909090909088 H 498.54268692367725 V 101.17045454545456" fill="none" stroke="black" stroke-width="1" class="treeEdge" vector-effect="non-scaling-stroke" id="node#162"></path><path d="M 517.7211804853068 97.68181818181816 H 498.54268692367725 V 101.17045454545456" fill="none" stroke="black" stroke-width="1" class="treeEdge" vector-effect="non-scaling-stroke" id="node#163"></path><path d="M 532.8812210463363 90.70454545454544 H 506.60875347916976 V 87.21590909090912" fill="none" stroke="black" stroke-width="1" class="treeEdge" vector-effect="non-scaling-stroke" id="node#167"></path><path d="M 545.0052273768807 83.72727272727272 H 506.60875347916976 V 87.21590909090912" fill="none" stroke="black" stroke-width="1" class="treeEdge" vector-effect="non-scaling-stroke" id="node#168"></path><path d="M 563.1762221284592 76.75 H 453.8938675282454 V 81.98295454545456" fill="none" stroke="black" stroke-width="1" class="treeEdge" vector-effect="non-scaling-stroke" id="node#165"></path><path d="M 344.86957025173837 69.77272727272728 H 218.05858733288605 V 101.40478342229675" fill="none" stroke="black" stroke-width="1" class="treeEdge" vector-effect="non-scaling-stroke" id="node#16"></path><path d="M 132.3594631514799 62.79545454545456 H 111.65122609659964 V 59.30681818181823" fill="none" stroke="black" stroke-width="1" class="treeEdge" vector-effect="non-scaling-stroke" id="node#13"></path><path d="M 124.64460231585899 55.818181818181834 H 111.65122609659964 V 59.30681818181823" fill="none" stroke="black" stroke-width="1" class="treeEdge" vector-effect="non-scaling-stroke" id="node#14"></path><path d="M 117.750583117516 48.840909090909115 H 83.61408837955095 V 62.85403676466514" fill="none" stroke="black" stroke-width="1" class="treeEdge" vector-effect="non-scaling-stroke" id="node#10"></path><path d="M 124.29342044550097 41.863636363636395 H 83.61408837955095 V 62.85403676466514" fill="none" stroke="black" stroke-width="1" class="treeEdge" vector-effect="non-scaling-stroke" id="node#11"></path><path d="M 68.33632103526061 34.886363636363605 H 46.180711281074515 V 48.870200200514375" fill="none" stroke="black" stroke-width="1" class="treeEdge" vector-effect="non-scaling-stroke" id="node#8"></path><path d="M 56.6501873597737 27.909090909090885 H 28.277824348524664 V 27.916413686492163" fill="none" stroke="black" stroke-width="1" class="treeEdge" vector-effect="non-scaling-stroke" id="node#4"></path><path d="M 38.87520422015487 20.931818181818162 H 28.277824348524664 V 27.916413686492163" fill="none" stroke="black" stroke-width="1" class="treeEdge" vector-effect="non-scaling-stroke" id="node#5"></path><path d="M 34.69399403067519 13.954545454545443 H 28.277824348524664 V 27.916413686492163" fill="none" stroke="black" stroke-width="1" class="treeEdge" vector-effect="non-scaling-stroke" id="node#6"></path><path d="M 13.922436171522346 6.977272727272721 H 12.623762376237636 V 11.631228804588318" fill="none" stroke="black" stroke-width="1" class="treeEdge" vector-effect="non-scaling-stroke" id="node#1"></path><path d="M 13.884564328347249 0 H 12.623762376237636 V 11.631228804588318" fill="none" stroke="black" stroke-width="1" class="treeEdge" vector-effect="non-scaling-stroke" id="node#2"></path><path d="M 984.4732469634417 610.5113636363636 H 964.3106085204907 V 605.2784090909091" fill="none" stroke="black" stroke-width="1" class="treeEdge" vector-effect="non-scaling-stroke" id="node#83"></path><path d="M 964.3106085204907 605.2784090909091 H 880.3708360013575 V 599.1732954545455" fill="none" stroke="black" stroke-width="1" class="treeEdge" vector-effect="non-scaling-stroke" id="node#81"></path><path d="M 880.3708360013575 599.1732954545455 H 834.0873120942119 V 590.8877840909091" fill="none" stroke="black" stroke-width="1" class="treeEdge" vector-effect="non-scaling-stroke" id="node#79"></path><path d="M 864.2045553188973 582.6022727272727 H 834.0873120942119 V 590.8877840909091" fill="none" stroke="black" stroke-width="1" class="treeEdge" vector-effect="non-scaling-stroke" id="node#86"></path><path d="M 834.0873120942119 590.8877840909091 H 807.5892269058919 V 579.7677556818181" fill="none" stroke="black" stroke-width="1" class="treeEdge" vector-effect="non-scaling-stroke" id="node#78"></path><path d="M 839.265736605228 568.6477272727273 H 807.5892269058919 V 579.7677556818181" fill="none" stroke="black" stroke-width="1" class="treeEdge" vector-effect="non-scaling-stroke" id="node#89"></path><path d="M 807.5892269058919 579.7677556818181 H 785.3727676888874 V 567.23046875" fill="none" stroke="black" stroke-width="1" class="treeEdge" vector-effect="non-scaling-stroke" id="node#77"></path><path d="M 821.6253841712148 554.6931818181819 H 785.3727676888874 V 567.23046875" fill="none" stroke="black" stroke-width="1" class="treeEdge" vector-effect="non-scaling-stroke" id="node#74"></path><path d="M 785.3727676888874 567.23046875 H 745.5926291405735 V 551.3680752840909" fill="none" stroke="black" stroke-width="1" class="treeEdge" vector-effect="non-scaling-stroke" id="node#73"></path><path d="M 893.5211061744587 540.7386363636364 H 798.05209628365 V 535.5056818181819" fill="none" stroke="black" stroke-width="1" class="treeEdge" vector-effect="non-scaling-stroke" id="node#94"></path><path d="M 798.05209628365 535.5056818181819 H 745.5926291405735 V 551.3680752840909" fill="none" stroke="black" stroke-width="1" class="treeEdge" vector-effect="non-scaling-stroke" id="node#92"></path><path d="M 745.5926291405735 551.3680752840909 H 696.49883118824 V 532.0988103693181" fill="none" stroke="black" stroke-width="1" class="treeEdge" vector-effect="non-scaling-stroke" id="node#72"></path><path d="M 768.7515441025022 519.8068181818181 H 755.1204154576387 V 512.8295454545455" fill="none" stroke="black" stroke-width="1" class="treeEdge" vector-effect="non-scaling-stroke" id="node#98"></path><path d="M 780.8396588467288 505.85227272727275 H 755.1204154576387 V 512.8295454545455" fill="none" stroke="black" stroke-width="1" class="treeEdge" vector-effect="non-scaling-stroke" id="node#101"></path><path d="M 755.1204154576387 512.8295454545455 H 696.49883118824 V 532.0988103693181" fill="none" stroke="black" stroke-width="1" class="treeEdge" vector-effect="non-scaling-stroke" id="node#97"></path><path d="M 696.49883118824 532.0988103693181 H 670.6939337486785 V 500.8782404119318" fill="none" stroke="black" stroke-width="1" class="treeEdge" vector-effect="non-scaling-stroke" id="node#71"></path><path d="M 837.1637382165283 491.89772727272725 H 812.7501445752466 V 486.66477272727275" fill="none" stroke="black" stroke-width="1" class="treeEdge" vector-effect="non-scaling-stroke" id="node#68"></path><path d="M 812.7501445752466 486.66477272727275 H 797.375348344756 V 480.5596590909091" fill="none" stroke="black" stroke-width="1" class="treeEdge" vector-effect="non-scaling-stroke" id="node#66"></path><path d="M 797.375348344756 480.5596590909091 H 735.7068276775856 V 469.65767045454544" fill="none" stroke="black" stroke-width="1" class="treeEdge" vector-effect="non-scaling-stroke" id="node#64"></path><path d="M 813.0288046679697 463.9886363636363 H 777.0193671236234 V 458.7556818181818" fill="none" stroke="black" stroke-width="1" class="treeEdge" vector-effect="non-scaling-stroke" id="node#61"></path><path d="M 777.0193671236234 458.7556818181818 H 735.7068276775856 V 469.65767045454544" fill="none" stroke="black" stroke-width="1" class="treeEdge" vector-effect="non-scaling-stroke" id="node#59"></path><path d="M 735.7068276775856 469.65767045454544 H 670.6939337486785 V 500.8782404119318" fill="none" stroke="black" stroke-width="1" class="treeEdge" vector-effect="non-scaling-stroke" id="node#58"></path><path d="M 670.6939337486785 500.8782404119318 H 639.0593046953443 V 454.19728781960225" fill="none" stroke="black" stroke-width="1" class="treeEdge" vector-effect="non-scaling-stroke" id="node#57"></path><path d="M 812.5838522761525 443.0568181818182 H 793.1256681164396 V 437.8238636363636" fill="none" stroke="black" stroke-width="1" class="treeEdge" vector-effect="non-scaling-stroke" id="node#117"></path><path d="M 793.1256681164396 437.8238636363636 H 782.3193629838191 V 429.97443181818176" fill="none" stroke="black" stroke-width="1" class="treeEdge" vector-effect="non-scaling-stroke" id="node#115"></path><path d="M 798.5098009758426 422.125 H 782.3193629838191 V 429.97443181818176" fill="none" stroke="black" stroke-width="1" class="treeEdge" vector-effect="non-scaling-stroke" id="node#120"></path><path d="M 782.3193629838191 429.97443181818176 H 767.3029244530935 V 420.8167613636363" fill="none" stroke="black" stroke-width="1" class="treeEdge" vector-effect="non-scaling-stroke" id="node#114"></path><path d="M 767.3029244530935 420.8167613636363 H 718.4623912049129 V 407.51633522727275" fill="none" stroke="black" stroke-width="1" class="treeEdge" vector-effect="non-scaling-stroke" id="node#112"></path><path d="M 794.5289861387628 401.1931818181818 H 763.8210089141448 V 394.2159090909091" fill="none" stroke="black" stroke-width="1" class="treeEdge" vector-effect="non-scaling-stroke" id="node#106"></path><path d="M 828.7262436512242 387.2386363636363 H 763.8210089141448 V 394.2159090909091" fill="none" stroke="black" stroke-width="1" class="treeEdge" vector-effect="non-scaling-stroke" id="node#109"></path><path d="M 763.8210089141448 394.2159090909091 H 718.4623912049129 V 407.51633522727275" fill="none" stroke="black" stroke-width="1" class="treeEdge" vector-effect="non-scaling-stroke" id="node#105"></path><path d="M 718.4623912049129 407.51633522727275 H 639.0593046953443 V 454.19728781960225" fill="none" stroke="black" stroke-width="1" class="treeEdge" vector-effect="non-scaling-stroke" id="node#104"></path><path d="M 639.0593046953443 454.19728781960225 H 572.5886422759091 V 413.7406893643466" fill="none" stroke="black" stroke-width="1" class="treeEdge" vector-effect="non-scaling-stroke" id="node#56"></path><path d="M 713.5264996667554 373.2840909090909 H 572.5886422759091 V 413.7406893643466" fill="none" stroke="black" stroke-width="1" class="treeEdge" vector-effect="non-scaling-stroke" id="node#53"></path><path d="M 572.5886422759091 413.7406893643466 H 475.96110362754507 V 346.0171952681108" fill="none" stroke="black" stroke-width="1" class="treeEdge" vector-effect="non-scaling-stroke" id="node#52"></path><path d="M 1239.621388157738 359.32954545454544 H 1154.6940073633718 V 354.0965909090909" fill="none" stroke="black" stroke-width="1" class="treeEdge" vector-effect="non-scaling-stroke" id="node#36"></path><path d="M 1154.6940073633718 354.0965909090909 H 1139.865532073481 V 347.99147727272725" fill="none" stroke="black" stroke-width="1" class="treeEdge" vector-effect="non-scaling-stroke" id="node#34"></path><path d="M 1139.865532073481 347.99147727272725 H 1078.3163871091922 V 339.7059659090909" fill="none" stroke="black" stroke-width="1" class="treeEdge" vector-effect="non-scaling-stroke" id="node#32"></path><path d="M 1102.2270666485454 331.42045454545456 H 1078.3163871091922 V 339.7059659090909" fill="none" stroke="black" stroke-width="1" class="treeEdge" vector-effect="non-scaling-stroke" id="node#39"></path><path d="M 1078.3163871091922 339.7059659090909 H 1053.474922694594 V 330.3302556818182" fill="none" stroke="black" stroke-width="1" class="treeEdge" vector-effect="non-scaling-stroke" id="node#31"></path><path d="M 1053.474922694594 330.3302556818182 H 981.4269084212261 V 322.15376420454544" fill="none" stroke="black" stroke-width="1" class="treeEdge" vector-effect="non-scaling-stroke" id="node#29"></path><path d="M 981.4269084212261 322.15376420454544 H 825.6909614703391 V 314.57688210227275" fill="none" stroke="black" stroke-width="1" class="treeEdge" vector-effect="non-scaling-stroke" id="node#27"></path><path d="M 825.6909614703391 314.57688210227275 H 767.4590095986011 V 307.2998046875" fill="none" stroke="black" stroke-width="1" class="treeEdge" vector-effect="non-scaling-stroke" id="node#25"></path><path d="M 767.4590095986011 307.2998046875 H 550.8014796771373 V 294.9396750710228" fill="none" stroke="black" stroke-width="1" class="treeEdge" vector-effect="non-scaling-stroke" id="node#23"></path><path d="M 699.7979058161294 289.55681818181824 H 685.0779569611642 V 282.5795454545455" fill="none" stroke="black" stroke-width="1" class="treeEdge" vector-effect="non-scaling-stroke" id="node#43"></path><path d="M 707.3391359988005 275.6022727272728 H 685.0779569611642 V 282.5795454545455" fill="none" stroke="black" stroke-width="1" class="treeEdge" vector-effect="non-scaling-stroke" id="node#46"></path><path d="M 685.0779569611642 282.5795454545455 H 550.8014796771373 V 294.9396750710228" fill="none" stroke="black" stroke-width="1" class="treeEdge" vector-effect="non-scaling-stroke" id="node#42"></path><path d="M 550.8014796771373 294.9396750710228 H 512.9971014888745 V 278.293701171875" fill="none" stroke="black" stroke-width="1" class="treeEdge" vector-effect="non-scaling-stroke" id="node#22"></path><path d="M 720.2197137852984 261.6477272727272 H 512.9971014888745 V 278.293701171875" fill="none" stroke="black" stroke-width="1" class="treeEdge" vector-effect="non-scaling-stroke" id="node#49"></path><path d="M 512.9971014888745 278.293701171875 H 475.96110362754507 V 346.0171952681108" fill="none" stroke="black" stroke-width="1" class="treeEdge" vector-effect="non-scaling-stroke" id="node#21"></path><path d="M 475.96110362754507 346.0171952681108 H 425.5898101986405 V 257.1265249541311" fill="none" stroke="black" stroke-width="1" class="treeEdge" vector-effect="non-scaling-stroke" id="node#20"></path><path d="M 688.3468045654369 244.20454545454538 H 683.6924107922742 V 235.48295454545456" fill="none" stroke="black" stroke-width="1" class="treeEdge" vector-effect="non-scaling-stroke" id="node#140"></path><path d="M 690.1985807702702 226.76136363636368 H 683.6924107922742 V 235.48295454545456" fill="none" stroke="black" stroke-width="1" class="treeEdge" vector-effect="non-scaling-stroke" id="node#144"></path><path d="M 683.6924107922742 235.48295454545456 H 677.2544464207232 V 220.36553030303028" fill="none" stroke="black" stroke-width="1" class="treeEdge" vector-effect="non-scaling-stroke" id="node#139"></path><path d="M 677.2544464207232 220.36553030303028 H 671.1041973988222 V 211.35321969696972" fill="none" stroke="black" stroke-width="1" class="treeEdge" vector-effect="non-scaling-stroke" id="node#136"></path><path d="M 671.1041973988222 211.35321969696972 H 666.1401824691384 V 203.3584280303031" fill="none" stroke="black" stroke-width="1" class="treeEdge" vector-effect="non-scaling-stroke" id="node#134"></path><path d="M 666.1401824691384 203.3584280303031 H 611.5206991824497 V 191.51160037878788" fill="none" stroke="black" stroke-width="1" class="treeEdge" vector-effect="non-scaling-stroke" id="node#132"></path><path d="M 673.9029483780349 184.89772727272722 H 637.4713684892943 V 179.66477272727266" fill="none" stroke="black" stroke-width="1" class="treeEdge" vector-effect="non-scaling-stroke" id="node#129"></path><path d="M 637.4713684892943 179.66477272727266 H 611.5206991824497 V 191.51160037878788" fill="none" stroke="black" stroke-width="1" class="treeEdge" vector-effect="non-scaling-stroke" id="node#127"></path><path d="M 611.5206991824497 191.51160037878788 H 584.0676342527828 V 179.48307291666663" fill="none" stroke="black" stroke-width="1" class="treeEdge" vector-effect="non-scaling-stroke" id="node#126"></path><path d="M 584.0676342527828 179.48307291666663 H 550.507585318796 V 168.23585464015147" fill="none" stroke="black" stroke-width="1" class="treeEdge" vector-effect="non-scaling-stroke" id="node#124"></path><path d="M 592.0517701824018 156.98863636363632 H 550.507585318796 V 168.23585464015147" fill="none" stroke="black" stroke-width="1" class="treeEdge" vector-effect="non-scaling-stroke" id="node#147"></path><path d="M 550.507585318796 168.23585464015147 H 425.5898101986405 V 257.1265249541311" fill="none" stroke="black" stroke-width="1" class="treeEdge" vector-effect="non-scaling-stroke" id="node#123"></path><path d="M 425.5898101986405 257.1265249541311 H 343.7588248545914 V 184.09072459827775" fill="none" stroke="black" stroke-width="1" class="treeEdge" vector-effect="non-scaling-stroke" id="node#19"></path><path d="M 559.1565019403729 143.03409090909088 H 519.3419429434127 V 130.2424242424242" fill="none" stroke="black" stroke-width="1" class="treeEdge" vector-effect="non-scaling-stroke" id="node#155"></path><path d="M 545.389374969111 129.07954545454544 H 519.3419429434127 V 130.2424242424242" fill="none" stroke="black" stroke-width="1" class="treeEdge" vector-effect="non-scaling-stroke" id="node#158"></path><path d="M 519.3419429434127 130.2424242424242 H 469.58182941015735 V 120.9393939393939" fill="none" stroke="black" stroke-width="1" class="treeEdge" vector-effect="non-scaling-stroke" id="node#153"></path><path d="M 469.58182941015735 120.9393939393939 H 438.86455084109696 V 111.05492424242426" fill="none" stroke="black" stroke-width="1" class="treeEdge" vector-effect="non-scaling-stroke" id="node#151"></path><path d="M 498.54268692367725 101.17045454545456 H 438.86455084109696 V 111.05492424242426" fill="none" stroke="black" stroke-width="1" class="treeEdge" vector-effect="non-scaling-stroke" id="node#161"></path><path d="M 438.86455084109696 111.05492424242426 H 343.7588248545914 V 184.09072459827775" fill="none" stroke="black" stroke-width="1" class="treeEdge" vector-effect="non-scaling-stroke" id="node#150"></path><path d="M 343.7588248545914 184.09072459827775 H 297.3543655485744 V 133.03683957186615" fill="none" stroke="black" stroke-width="1" class="treeEdge" vector-effect="non-scaling-stroke" id="node#18"></path><path d="M 506.60875347916976 87.21590909090912 H 453.8938675282454 V 81.98295454545456" fill="none" stroke="black" stroke-width="1" class="treeEdge" vector-effect="non-scaling-stroke" id="node#166"></path><path d="M 453.8938675282454 81.98295454545456 H 297.3543655485744 V 133.03683957186615" fill="none" stroke="black" stroke-width="1" class="treeEdge" vector-effect="non-scaling-stroke" id="node#164"></path><path d="M 297.3543655485744 133.03683957186615 H 218.05858733288605 V 101.40478342229675" fill="none" stroke="black" stroke-width="1" class="treeEdge" vector-effect="non-scaling-stroke" id="node#17"></path><path d="M 218.05858733288605 101.40478342229675 H 83.61408837955095 V 62.85403676466514" fill="none" stroke="black" stroke-width="1" class="treeEdge" vector-effect="non-scaling-stroke" id="node#15"></path><path d="M 111.65122609659964 59.30681818181823 H 83.61408837955095 V 62.85403676466514" fill="none" stroke="black" stroke-width="1" class="treeEdge" vector-effect="non-scaling-stroke" id="node#12"></path><path d="M 83.61408837955095 62.85403676466514 H 46.180711281074515 V 48.870200200514375" fill="none" stroke="black" stroke-width="1" class="treeEdge" vector-effect="non-scaling-stroke" id="node#9"></path><path d="M 46.180711281074515 48.870200200514375 H 28.277824348524664 V 27.916413686492163" fill="none" stroke="black" stroke-width="1" class="treeEdge" vector-effect="non-scaling-stroke" id="node#7"></path><path d="M 28.277824348524664 27.916413686492163 H 12.623762376237636 V 11.631228804588318" fill="none" stroke="black" stroke-width="1" class="treeEdge" vector-effect="non-scaling-stroke" id="node#3"></path><path d="M 12.623762376237636 11.631228804588318 H 0 V 11.631228804588318" fill="none" stroke="black" stroke-width="1" class="treeEdge" vector-effect="non-scaling-stroke" id="node#0"></path><text x="991.0129672570899" y="614" dominant-baseline="central" transform="matrix(1.25757, 0, 0, 1.11564, 0, 0) matrix(1, 0, 0, 1, -202.973, -63.6409)">MH615810|AlphaCoV|Swine_acute_diarrhea_syndrome_coronavirus_CH-FJWT-2018</text><text x="990.4985747605353" y="607.0227272727273" dominant-baseline="central" transform="matrix(1.25757, 0, 0, 1.11564, 0, 0) matrix(1, 0, 0, 1, -202.867, -62.9177)">NC_009988|AlphaCoV|Rhinolophus_bat_coronavirus_HKU2</text><text x="994.2292579965921" y="600.0454545454545" dominant-baseline="central" transform="matrix(1.25757, 0, 0, 1.11564, 0, 0) matrix(1, 0, 0, 1, -203.631, -62.1945)">NC_028824|AlphaCoV|BatRf_coronavirus_YN2012</text><text x="1030.0457542689314" y="593.0681818181819" dominant-baseline="central" transform="matrix(1.25757, 0, 0, 1.11564, 0, 0) matrix(1, 0, 0, 1, -210.967, -61.4713)">NC_028811|AlphaCoV|BatMr_coronavirus_SAX2011</text><text x="961.2976944615788" y="586.0909090909091" dominant-baseline="central" transform="matrix(1.25757, 0, 0, 1.11564, 0, 0) matrix(1, 0, 0, 1, -196.887, -60.7481)">MN065811|AlphaCoV|Bat_coronavirus_008_16/M.bra/FIN/2016</text><text x="931.2709078235949" y="579.1136363636364" dominant-baseline="central" transform="matrix(1.25757, 0, 0, 1.11564, 0, 0) matrix(1, 0, 0, 1, -190.737, -60.0249)">NC_022103|AlphaCoV|Bat_coronavirus_CDPHE15</text><text x="935.5681743999507" y="572.1363636363636" dominant-baseline="central" transform="matrix(1.25757, 0, 0, 1.11564, 0, 0) matrix(1, 0, 0, 1, -191.617, -59.3017)">NC_003436|AlphaCoV|Porcine_epidemic_diarrhea_virus</text><text x="913.9263768829529" y="565.1590909090909" dominant-baseline="central" transform="matrix(1.25757, 0, 0, 1.11564, 0, 0) matrix(1, 0, 0, 1, -187.184, -58.5785)">NC_009657|AlphaCoV|Scotophilus_bat_coronavirus_512</text><text x="921.9714443505135" y="558.1818181818181" dominant-baseline="central" transform="matrix(1.25757, 0, 0, 1.11564, 0, 0) matrix(1, 0, 0, 1, -188.832, -57.8553)">MK720944|AlphaCoV|Tylonycteris_bat_coronavirus_HKU33_strain_GZ151867</text><text x="903.5466302248765" y="551.2045454545455" dominant-baseline="central" transform="matrix(1.25757, 0, 0, 1.11564, 0, 0) matrix(1, 0, 0, 1, -185.058, -57.1321)">NC_028833|AlphaCoV|BatNv_coronavirus_SC2013</text><text x="908.5047863078702" y="544.2272727272727" dominant-baseline="central" transform="matrix(1.25757, 0, 0, 1.11564, 0, 0) matrix(1, 0, 0, 1, -186.074, -56.409)">KJ473798|AlphaCoV|Bat_coronavirus_HuB2013</text><text x="913.7887112463216" y="537.25" dominant-baseline="central" transform="matrix(1.25757, 0, 0, 1.11564, 0, 0) matrix(1, 0, 0, 1, -187.156, -55.6858)">NC_010438|AlphaCoV|Miniopterus_bat_coronavirus_HKU8</text><text x="912.6039121134776" y="530.2727272727273" dominant-baseline="central" transform="matrix(1.25757, 0, 0, 1.11564, 0, 0) matrix(1, 0, 0, 1, -186.913, -54.9626)">NC_010437|AlphaCoV|Bat_coronavirus_1A</text><text x="816.8784866462458" y="523.2954545454545" dominant-baseline="central" transform="matrix(1.25757, 0, 0, 1.11564, 0, 0) matrix(1, 0, 0, 1, -167.308, -54.2394)">MK720946|AlphaCoV|Rhinolophus_bat_coronavirus_HKU32</text><text x="847.1947247625031" y="516.3181818181819" dominant-baseline="central" transform="matrix(1.25757, 0, 0, 1.11564, 0, 0) matrix(1, 0, 0, 1, -173.517, -53.5162)">NC_028814|AlphaCoV|BatRf_coronavirus_HuB2013</text><text x="839.2171312208021" y="509.3409090909091" dominant-baseline="central" transform="matrix(1.25757, 0, 0, 1.11564, 0, 0) matrix(1, 0, 0, 1, -171.883, -52.793)">MN611525|AlphaCoV|Hipposideros_pomona_bat_coronavirus_CHB25</text><text x="814.6225846853781" y="502.3636363636363" dominant-baseline="central" transform="matrix(1.25757, 0, 0, 1.11564, 0, 0) matrix(1, 0, 0, 1, -166.846, -52.0698)">NC_018871|AlphaCoV|Rousettus_bat_coronavirus_HKU10-183A</text><text x="840.8222438178911" y="495.3863636363637" dominant-baseline="central" transform="matrix(1.25757, 0, 0, 1.11564, 0, 0) matrix(1, 0, 0, 1, -172.212, -51.3466)">JQ410000|AlphaCoV|Alpaca_respiratory_coronavirus_CA08-1/2008</text><text x="838.486893873962" y="488.4090909090909" dominant-baseline="central" transform="matrix(1.25757, 0, 0, 1.11564, 0, 0) matrix(1, 0, 0, 1, -171.733, -50.6234)">NC_028752|AlphaCoV|Camel_coronavirus_Riyadh/Ry141/2015</text><text x="829.1488851439327" y="481.4318181818182" dominant-baseline="central" transform="matrix(1.25757, 0, 0, 1.11564, 0, 0) matrix(1, 0, 0, 1, -169.821, -49.9002)">KY073747|AlphaCoV|Bat_coronavirus_BtKY229E-1</text><text x="803.3064484667063" y="474.45454545454544" dominant-baseline="central" transform="matrix(1.25757, 0, 0, 1.11564, 0, 0) matrix(1, 0, 0, 1, -164.528, -49.177)">NC_002645|AlphaCoV|Human_coronavirus_229E</text><text x="942.2242388806729" y="467.47727272727275" dominant-baseline="central" transform="matrix(1.25757, 0, 0, 1.11564, 0, 0) matrix(1, 0, 0, 1, -192.98, -48.4538)">KY073745|AlphaCoV|Bat_coronavirus_BtKYNL63-9b</text><text x="842.9639419414319" y="460.5" dominant-baseline="central" transform="matrix(1.25757, 0, 0, 1.11564, 0, 0) matrix(1, 0, 0, 1, -172.65, -47.7307)">NC_032107|AlphaCoV|Bat_coronavirus_BtKYNL63-9a</text><text x="842.5700108487335" y="453.52272727272725" dominant-baseline="central" transform="matrix(1.25757, 0, 0, 1.11564, 0, 0) matrix(1, 0, 0, 1, -172.57, -47.0075)">NC_005831|AlphaCoV|Human_coronavirus_NL63</text><text x="819.3895997954264" y="446.54545454545456" dominant-baseline="central" transform="matrix(1.25757, 0, 0, 1.11564, 0, 0) matrix(1, 0, 0, 1, -167.822, -46.2843)">KX499468|AlphaCoV|Porcine_transmissible_gastroenteritis_virus_AHHF</text><text x="831.6543140648807" y="439.56818181818176" dominant-baseline="central" transform="matrix(1.25757, 0, 0, 1.11564, 0, 0) matrix(1, 0, 0, 1, -170.334, -45.5611)">NC_028806|AlphaCoV|Swine_enteric_coronavirus_Italy/213306/2009</text><text x="805.836410905083" y="432.5909090909091" dominant-baseline="central" transform="matrix(1.25757, 0, 0, 1.11564, 0, 0) matrix(1, 0, 0, 1, -165.046, -44.8379)">NC_002306|AlphaCoV|Feline_infectious_peritonitis_virus_79-1146</text><text x="806.4141815905389" y="425.6136363636363" dominant-baseline="central" transform="matrix(1.25757, 0, 0, 1.11564, 0, 0) matrix(1, 0, 0, 1, -165.164, -44.1147)">JQ404409|AlphaCoV|Canine_coronavirus_strain_1-71</text><text x="808.510973638874" y="418.6363636363637" dominant-baseline="central" transform="matrix(1.25757, 0, 0, 1.11564, 0, 0) matrix(1, 0, 0, 1, -165.594, -43.3915)">KP849472|AlphaCoV|Canine_coronavirus_1_strain_23/03</text><text x="793.2699313346214" y="411.6590909090909" dominant-baseline="central" transform="matrix(1.25757, 0, 0, 1.11564, 0, 0) matrix(1, 0, 0, 1, -162.472, -42.6683)">MH817484|AlphaCoV|Feline_alphacoronavirus_1_SB22</text><text x="814.1665677751265" y="404.68181818181824" dominant-baseline="central" transform="matrix(1.25757, 0, 0, 1.11564, 0, 0) matrix(1, 0, 0, 1, -166.752, -41.9451)">LC119077|AlphaCoV|Ferret_coronavirus_FRCoV4370</text><text x="841.478564432866" y="397.70454545454544" dominant-baseline="central" transform="matrix(1.25757, 0, 0, 1.11564, 0, 0) matrix(1, 0, 0, 1, -172.346, -41.2219)">NC_030292|AlphaCoV|Ferret_coronavirus_FRCoV-NL-2010</text><text x="846.038355871346" y="390.72727272727275" dominant-baseline="central" transform="matrix(1.25757, 0, 0, 1.11564, 0, 0) matrix(1, 0, 0, 1, -173.28, -40.4987)">MF113046|AlphaCoV|Mink_coronavirus_China/1/2016</text><text x="855.2664128890643" y="383.75" dominant-baseline="central" transform="matrix(1.25757, 0, 0, 1.11564, 0, 0) matrix(1, 0, 0, 1, -175.17, -39.7755)">NC_023760|AlphaCoV|Mink_coronavirus_WD1127</text><text x="816.4085140109676" y="376.77272727272725" dominant-baseline="central" transform="matrix(1.25757, 0, 0, 1.11564, 0, 0) matrix(1, 0, 0, 1, -167.211, -39.0524)">KF294380|AlphaCoV|Rat_coronavirus_Lucheng-19</text><text x="783.9091801833367" y="369.79545454545456" dominant-baseline="central" transform="matrix(1.25757, 0, 0, 1.11564, 0, 0) matrix(1, 0, 0, 1, -160.555, -38.3292)">NC_034972|AlphaCoV|Murine_coronavirus_AcCoV-JC34</text><text x="1255.9784120449583" y="362.81818181818176" dominant-baseline="central" transform="matrix(1.25757, 0, 0, 1.11564, 0, 0) matrix(1, 0, 0, 1, -257.241, -37.606)">NC_016992|DeltaCoV|Sparrow_coronavirus_HKU17</text><text x="1275" y="355.8409090909091" dominant-baseline="central" transform="matrix(1.25757, 0, 0, 1.11564, 0, 0) matrix(1, 0, 0, 1, -261.137, -36.8828)">NC_039208|DeltaCoV|Porcine_coronavirus_HKU15-155</text><text x="1183.1000960909828" y="348.8636363636363" dominant-baseline="central" transform="matrix(1.25757, 0, 0, 1.11564, 0, 0) matrix(1, 0, 0, 1, -242.315, -36.1596)">NC_016993|DeltaCoV|Magpie-robin_coronavirus_HKU18</text><text x="1165.5513226963267" y="341.8863636363637" dominant-baseline="central" transform="matrix(1.25757, 0, 0, 1.11564, 0, 0) matrix(1, 0, 0, 1, -238.721, -35.4364)">NC_011550|DeltaCoV|Munia_coronavirus_HKU13-3514</text><text x="1157.4987943291005" y="334.9090909090909" dominant-baseline="central" transform="matrix(1.25757, 0, 0, 1.11564, 0, 0) matrix(1, 0, 0, 1, -237.071, -34.7132)">NC_011547|DeltaCoV|Bulbul_coronavirus_HKU11-934</text><text x="1126.184988058209" y="327.93181818181824" dominant-baseline="central" transform="matrix(1.25757, 0, 0, 1.11564, 0, 0) matrix(1, 0, 0, 1, -230.658, -33.99)">NC_011549|DeltaCoV|Thrush_coronavirus_HKU12-600</text><text x="1088.379192955802" y="320.95454545454544" dominant-baseline="central" transform="matrix(1.25757, 0, 0, 1.11564, 0, 0) matrix(1, 0, 0, 1, -222.915, -33.2668)">NC_016991|DeltaCoV|White-eye_coronavirus_HKU16</text><text x="1038.0488587512662" y="313.97727272727275" dominant-baseline="central" transform="matrix(1.25757, 0, 0, 1.11564, 0, 0) matrix(1, 0, 0, 1, -212.606, -32.5436)">NC_016996|DeltaCoV|Common_moorhen_coronavirus_HKU21</text><text x="1014.9455037407541" y="307" dominant-baseline="central" transform="matrix(1.25757, 0, 0, 1.11564, 0, 0) matrix(1, 0, 0, 1, -207.874, -31.8204)">NC_016994|DeltaCoV|Night_heron_coronavirus_HKU19</text><text x="944.1770790727387" y="300.02272727272725" dominant-baseline="central" transform="matrix(1.25757, 0, 0, 1.11564, 0, 0) matrix(1, 0, 0, 1, -193.38, -31.0972)">NC_016995|DeltaCoV|Wigeon_coronavirus_HKU20</text><text x="714.6919123185892" y="293.04545454545456" dominant-baseline="central" transform="matrix(1.25757, 0, 0, 1.11564, 0, 0) matrix(1, 0, 0, 1, -146.378, -30.3741)">NC_001451|GammaCoV|Avian_infectious_bronchitis_virus</text><text x="713.2602822545048" y="286.0681818181818" dominant-baseline="central" transform="matrix(1.25757, 0, 0, 1.11564, 0, 0) matrix(1, 0, 0, 1, -146.085, -29.6509)">NC_010800|GammaCoV|Turkey_coronavirus_MG10</text><text x="778.7037015485799" y="279.0909090909091" dominant-baseline="central" transform="matrix(1.25757, 0, 0, 1.11564, 0, 0) matrix(1, 0, 0, 1, -159.489, -28.9277)">KM454473|GammaCoV|Duck_coronavirus_DK/GD/27/2014</text><text x="727.8998464471796" y="272.1136363636364" dominant-baseline="central" transform="matrix(1.25757, 0, 0, 1.11564, 0, 0) matrix(1, 0, 0, 1, -149.084, -28.2045)">MK423876|GammaCoV|Pheasant_coronavirus_ph/China/I0710/17</text><text x="726.1611383085608" y="265.1363636363636" dominant-baseline="central" transform="matrix(1.25757, 0, 0, 1.11564, 0, 0) matrix(1, 0, 0, 1, -148.728, -27.4813)">KF793824|GammaCoV|Bottlenose_dolphin_coronavirus_HKU22_strain_CF090325</text><text x="730.4612099194654" y="258.1590909090909" dominant-baseline="central" transform="matrix(1.25757, 0, 0, 1.11564, 0, 0) matrix(1, 0, 0, 1, -149.608, -26.7581)">NC_010646|GammaCoV|Beluga_whale_coronavirus_SW1</text><text x="689.640101042537" y="251.18181818181816" dominant-baseline="central" transform="matrix(1.25757, 0, 0, 1.11564, 0, 0) matrix(1, 0, 0, 1, -141.248, -26.0349)">EF424621|BetaCoV|Sable_antelope_coronavirus_US/OH1/2003</text><text x="689.607248814923" y="244.20454545454544" dominant-baseline="central" transform="matrix(1.25757, 0, 0, 1.11564, 0, 0) matrix(1, 0, 0, 1, -141.241, -25.3117)">EF424623|BetaCoV|Giraffe_coronavirus_US/OH3/2003</text><text x="689.658725756638" y="237.22727272727272" dominant-baseline="central" transform="matrix(1.25757, 0, 0, 1.11564, 0, 0) matrix(1, 0, 0, 1, -141.251, -24.5885)">NC_003045|BetaCoV|Bovine_coronavirus_ENT</text><text x="691.9372932705506" y="230.25" dominant-baseline="central" transform="matrix(1.25757, 0, 0, 1.11564, 0, 0) matrix(1, 0, 0, 1, -141.718, -23.8653)">MG518518|BetaCoV|Water_deer_coronavirus_W17-18</text><text x="701.3333471560529" y="223.27272727272728" dominant-baseline="central" transform="matrix(1.25757, 0, 0, 1.11564, 0, 0) matrix(1, 0, 0, 1, -143.642, -23.1421)">MN514966|BetaCoV|Dromedary_camel_coronavirus_HKU23</text><text x="678.5907099886479" y="216.29545454545456" dominant-baseline="central" transform="matrix(1.25757, 0, 0, 1.11564, 0, 0) matrix(1, 0, 0, 1, -138.984, -22.4189)">JX860640|BetaCoV|Canine_respiratory_coronavirus_K37</text><text x="686.2021749270154" y="209.31818181818184" dominant-baseline="central" transform="matrix(1.25757, 0, 0, 1.11564, 0, 0) matrix(1, 0, 0, 1, -140.543, -21.6958)">MH810163|BetaCoV|Yak_coronavirus_YAK/HY24/CH/2017</text><text x="681.9645823118318" y="202.34090909090912" dominant-baseline="central" transform="matrix(1.25757, 0, 0, 1.11564, 0, 0) matrix(1, 0, 0, 1, -139.675, -20.9726)">KY994645|BetaCoV|Porcine_hemagglutinating_encephalomyelitis_JL/2008</text><text x="673.0715350652669" y="195.3636363636364" dominant-baseline="central" transform="matrix(1.25757, 0, 0, 1.11564, 0, 0) matrix(1, 0, 0, 1, -137.854, -20.2494)">NC_006213|BetaCoV|Human_coronavirus_OC43_strain_ATCC_VR-759</text><text x="692.6758331974456" y="188.3863636363636" dominant-baseline="central" transform="matrix(1.25757, 0, 0, 1.11564, 0, 0) matrix(1, 0, 0, 1, -141.869, -19.5262)">EF446615|BetaCoV|Equine_coronavirus_NC99</text><text x="692.079705340553" y="181.40909090909088" dominant-baseline="central" transform="matrix(1.25757, 0, 0, 1.11564, 0, 0) matrix(1, 0, 0, 1, -141.747, -18.803)">NC_017083|BetaCoV|Rabbit_coronavirus_HKU14</text><text x="696.8125890714908" y="174.43181818181816" dominant-baseline="central" transform="matrix(1.25757, 0, 0, 1.11564, 0, 0) matrix(1, 0, 0, 1, -142.717, -18.0798)">NC_026011|BetaCoV|Rat_Betacoronavirus_HKU24</text><text x="706.8796326033275" y="167.45454545454544" dominant-baseline="central" transform="matrix(1.25757, 0, 0, 1.11564, 0, 0) matrix(1, 0, 0, 1, -144.778, -17.3566)">NC_006577|BetaCoV|Human_coronavirus_HKU1</text><text x="606.7523122579196" y="160.47727272727272" dominant-baseline="central" transform="matrix(1.25757, 0, 0, 1.11564, 0, 0) matrix(1, 0, 0, 1, -124.271, -16.6334)">FJ647224|BetaCoV|Murine_coronavirus_MHV-3</text><text x="624.8382964443263" y="153.5" dominant-baseline="central" transform="matrix(1.25757, 0, 0, 1.11564, 0, 0) matrix(1, 0, 0, 1, -127.975, -15.9102)">NC_012936|BetaCoV|Rat_coronavirus_Parker</text><text x="591.3748718229642" y="146.52272727272728" dominant-baseline="central" transform="matrix(1.25757, 0, 0, 1.11564, 0, 0) matrix(1, 0, 0, 1, -121.121, -15.187)">NC_019843|BetaCoV|Human_MERS_coronavirus</text><text x="602.4582412386721" y="139.54545454545456" dominant-baseline="central" transform="matrix(1.25757, 0, 0, 1.11564, 0, 0) matrix(1, 0, 0, 1, -123.392, -14.4638)">NC_034440|BetaCoV|Bat_coronavirus_PREDICT/PDF-2180</text><text x="571.4448844239381" y="132.56818181818184" dominant-baseline="central" transform="matrix(1.25757, 0, 0, 1.11564, 0, 0) matrix(1, 0, 0, 1, -117.04, -13.7406)">KX442564|BetaCoV|Hypsugo_bat_coronavirus_HKU25_isolate_YD131305</text><text x="618.6723331862908" y="125.59090909090912" dominant-baseline="central" transform="matrix(1.25757, 0, 0, 1.11564, 0, 0) matrix(1, 0, 0, 1, -126.712, -13.0175)">NC_009020|BetaCoV|Pipistrellus_bat_coronavirus_HKU5</text><text x="554.6614365223164" y="118.61363636363639" dominant-baseline="central" transform="matrix(1.25757, 0, 0, 1.11564, 0, 0) matrix(1, 0, 0, 1, -113.602, -12.2943)">KJ473821|BetaCoV|Bat_coronavirus_SC2013</text><text x="563.5405450356695" y="111.63636363636361" dominant-baseline="central" transform="matrix(1.25757, 0, 0, 1.11564, 0, 0) matrix(1, 0, 0, 1, -115.421, -11.5711)">NC_039207|BetaCoV|Hedgehog_coronavirus_VMC/DEU/2012</text><text x="516.3832120955007" y="104.65909090909088" dominant-baseline="central" transform="matrix(1.25757, 0, 0, 1.11564, 0, 0) matrix(1, 0, 0, 1, -105.762, -10.8479)">KU182965|BetaCoV|Bat_coronavirus_JPDB144</text><text x="517.7211804853068" y="97.68181818181816" dominant-baseline="central" transform="matrix(1.25757, 0, 0, 1.11564, 0, 0) matrix(1, 0, 0, 1, -106.036, -10.1247)">NC_009019|BetaCoV|Tylonycteris_bat_coronavirus_HKU4</text><text x="532.8812210463363" y="90.70454545454544" dominant-baseline="central" transform="matrix(1.25757, 0, 0, 1.11564, 0, 0) matrix(1, 0, 0, 1, -109.141, -9.40149)">EF065514|BetaCoV|Bat_coronavirus_HKU9-2</text><text x="545.0052273768807" y="83.72727272727272" dominant-baseline="central" transform="matrix(1.25757, 0, 0, 1.11564, 0, 0) matrix(1, 0, 0, 1, -111.624, -8.6783)">NC_009021|BetaCoV|Rousettus_bat_coronavirus_HKU9</text><text x="563.1762221284592" y="76.75" dominant-baseline="central" transform="matrix(1.25757, 0, 0, 1.11564, 0, 0) matrix(1, 0, 0, 1, -115.346, -7.95511)">NC_030886|BetaCoV|Rousettus_bat_coronavirus_GCCDC1_356</text><text x="344.86957025173837" y="69.77272727272728" dominant-baseline="central" transform="matrix(1.25757, 0, 0, 1.11564, 0, 0) matrix(1, 0, 0, 1, -70.6339, -7.23192)">NC_025217|BetaCoV|BatHp_coronavirus_Zhejiang2013</text><text x="132.3594631514799" y="62.79545454545456" dominant-baseline="central" transform="matrix(1.25757, 0, 0, 1.11564, 0, 0) matrix(1, 0, 0, 1, -27.109, -6.50873)">MN996532|BetaCoV|Bat_coronavirus_RaTG13</text><text x="124.64460231585899" y="55.818181818181834" dominant-baseline="central" transform="matrix(1.25757, 0, 0, 1.11564, 0, 0) matrix(1, 0, 0, 1, -25.5289, -5.78553)">NC_045512|BetaCoV|Human_SARS-CoV-2_strain_Wuhan-Hu-1</text><text x="117.750583117516" y="48.840909090909115" dominant-baseline="central" transform="matrix(1.25757, 0, 0, 1.11564, 0, 0) matrix(1, 0, 0, 1, -24.1169, -5.06234)">MT040335|BetaCoV|Pangolin_coronavirus_PCoV_GX-P5L</text><text x="124.29342044550097" y="41.863636363636395" dominant-baseline="central" transform="matrix(1.25757, 0, 0, 1.11564, 0, 0) matrix(1, 0, 0, 1, -25.457, -4.33915)">NC_014470|BetaCoV|Bat_coronavirus_BM48-31/BGR/2008</text><text x="68.33632103526061" y="34.886363636363605" dominant-baseline="central" transform="matrix(1.25757, 0, 0, 1.11564, 0, 0) matrix(1, 0, 0, 1, -13.9962, -3.61596)">JX993988|BetaCoV|Bat_coronavirus_Yunnan2011</text><text x="56.6501873597737" y="27.909090909090885" dominant-baseline="central" transform="matrix(1.25757, 0, 0, 1.11564, 0, 0) matrix(1, 0, 0, 1, -11.6027, -2.89277)">DQ022305|BetaCoV|Bat_coronavirus_HKU3-1</text><text x="38.87520422015487" y="20.931818181818162" dominant-baseline="central" transform="matrix(1.25757, 0, 0, 1.11564, 0, 0) matrix(1, 0, 0, 1, -7.96216, -2.16958)">DQ071615|BetaCoV|Bat_coronavirus_Rp3/2004</text><text x="34.69399403067519" y="13.954545454545443" dominant-baseline="central" transform="matrix(1.25757, 0, 0, 1.11564, 0, 0) matrix(1, 0, 0, 1, -7.10579, -1.44638)">KT444582|BetaCoV|Bat_coronavirus_WIV16</text><text x="13.922436171522346" y="6.977272727272721" dominant-baseline="central" transform="matrix(1.25757, 0, 0, 1.11564, 0, 0) matrix(1, 0, 0, 1, -2.8515, -0.723192)">AY304486|BetaCoV|Civet_coronavirus_SZ3/2003</text><text x="13.884564328347249" y="0" dominant-baseline="central" transform="matrix(1.25757, 0, 0, 1.11564, 0, 0) matrix(1, 0, 0, 1, -2.84374, -0)">NC_004718|BetaCoV|Human_SARS_coronavirus_Tor2</text></svg>